<?xml version="1.0" encoding="utf-8"?>
<!-- Generator: Adobe Illustrator 21.1.0, SVG Export Plug-In . SVG Version: 6.00 Build 0)  -->
<svg version="1.1" xmlns="http://www.w3.org/2000/svg" xmlns:xlink="http://www.w3.org/1999/xlink" x="0px" y="0px"
	 viewBox="0 0 942.7 1377.5" style="enable-background:new 0 0 942.7 1377.5;" xml:space="preserve">
<style type="text/css">
	.st0{stroke:#FFFFFF;stroke-width:3;stroke-miterlimit:10;}
	.st1{font-family:'Arial-BoldMT';}
	.st2{font-size:5px;}
	.st3{display:none;}
	.st4{display:inline;}
	.st5{fill:#CEDDE8;stroke:#231F20;stroke-linecap:round;stroke-miterlimit:10;}
	.st6{display:none;fill:#E6E7E8;stroke:#231F20;stroke-linecap:round;stroke-miterlimit:10;}
</style>
<g id="Layer_1" xmlns:cc="http://creativecommons.org/ns#" xmlns:dc="http://purl.org/dc/elements/1.1/" xmlns:inkscape="http://www.inkscape.org/namespaces/inkscape" xmlns:rdf="http://www.w3.org/1999/02/22-rdf-syntax-ns#" xmlns:sodipodi="http://sodipodi.sourceforge.net/DTD/sodipodi-0.dtd" xmlns:svg="http://www.w3.org/2000/svg">
	<path class="st0" d="M192.7,58.1c-12.1,0-24.1,4.6-33.3,13.8C56.5,174.7,0,311.4,0,456.7C0,602,56.5,738.7,159.4,841.4
		c91.6,91.6,210,146.4,337.6,157.3v67h-90.4c-26.1,0-47.2,21.1-47.2,47.2c0,26,21.1,47.2,47.2,47.2h275.1
		c26.1,0,47.2-21.1,47.2-47.2c0-26-21.1-47.2-47.2-47.2h-90.4v-67c127.6-10.9,246-65.8,337.6-157.3c18.4-18.4,18.4-48.3,0-66.7
		c-18.4-18.4-48.3-18.4-66.7,0c-84.9,84.9-197.9,131.7-318.1,131.7c-120.1,0-233.1-46.8-318.1-131.7S94.3,576.8,94.3,456.7
		c0-120.2,46.8-233.1,131.7-318.1c18.4-18.4,18.4-48.2,0-66.7C216.8,62.7,204.8,58.1,192.7,58.1z M544.1,64.2L544.1,64.2
		 M936.6,456.7 M544.1,849.2 M151.7,456.7 M246.1,456.7 M842.3,456.7"/>
	<text transform="matrix(1 0 0 1 0 1116.995)" class="st1 st2">Created by logan</text>
	<text transform="matrix(1 0 0 1 0 1121.995)" class="st1 st2">from the Noun Project</text>
</g>
<g id="Layer_2" class="st3">
	<path class="st4" d="M222.1,419.1c0-86.4,36.9-164.3,95.7-218.8c53.2-49.3,124.3-79.4,202.4-79.4h0
		c164.4,0,298.2,133.8,298.2,298.2c0,164.4-133.8,298.2-298.2,298.2C355.7,717.3,222.1,583.6,222.1,419.1l298.1,392.5
		c216.5,0,392.5-176.1,392.5-392.5c0-216.4-176-392.5-392.5-392.5c-216.4,0-392.4,176.1-392.4,392.5c0,216.4,176,392.5,392.4,392.5"
		/>
	<path class="st4" d="M420.1,260.6"/>
</g>
<g id="Layer_3">
	<path class="st5" d="M179.5,463.1c0-166.4,115.8-306.3,272.9-346.7c29.8-7.7,61.1-11.8,93.4-11.8c202.3,0,366.3,160.5,366.3,358.5
		s-164,358.5-366.3,358.5S179.5,661.1,179.5,463.1z"/>
	<polygon class="st6" points="659.7,472.3 659.7,475.7 662.6,477.4 665.5,475.7 665.5,472.3 662.6,470.6 	"/>
</g>
</svg>
