<?xml version="1.0" encoding="utf-8"?>
<!-- Generator: Adobe Illustrator 21.1.0, SVG Export Plug-In . SVG Version: 6.00 Build 0)  -->
<svg version="1.1" xmlns="http://www.w3.org/2000/svg" xmlns:xlink="http://www.w3.org/1999/xlink" x="0px" y="0px"
	viewBox="750 0 1500 1500" style="enable-background:new 0 0 942.7 1377.5;" xml:space="preserve">
	<style type="text/css">
		.base{fill:#4e4e43;stroke:#FFFFFF;stroke-width:3;stroke-miterlimit:10;}
		.text1{font-family:'Arial-BoldMT';}
		.text2{font-size:5px;}
		.st3{display:none;fill:#E6E7E8;stroke:#231F20;stroke-linecap:round;stroke-miterlimit:10;}
		.terrain{fill:#0af20f;stroke:#231F20;stroke-miterlimit:1;}
		.globe{fill: #c3e6fc;}
		text {
		z-index:50;
		}
		circle {
		z-index: 1;
		}
		#Layer_3 {
		z-index:0;
		}
		@keyframes rotation {
		from {transform: rotate(0deg);}
		to {transform: rotate(359deg);}
		}

 
		#svg_all {
		transform: scale(.2);
		}
		position: absolute;
		left:  -10em;

		@keyframes disappear {
		0% {opacity:1;}
		100% {opacity:0;}
		}

		.terrain {
		animation: 2s fadeOut;
		animation-fill-mode: forwards;
		animation-delay: 4s;
		}
		@keyframes fadeOut {
		0% {
		opacity: 1;
		visibility:visible;
		}
		100% {

		opacity: 0;
		}
		}
		.T1 {
		font-size: 50em;
		opacity: 0;
		}
		@keyframes fadeIn {
		0% {
		opacity: 0;
		}
		100% {
		opacity: 1;
		}
		}
		#group1, #group2  {
		animation-name:  rotation-move;
		animation-duration:  2s, 2s;
		animation-timing-function:  linear;
		animation-iteration-count:  infinite, infinite;
		animation-iteration-count:1;
		transform-origin: 537.1px 473.1px;
		transition: translate 4s;
		
		animation-fill-mode:forwards;


		}
		#group1 {
		animation-delay: 10s;
		}
		#group2 {
		animation: 2s fadeIn;
		animation-fill-mode:forwards;
		opacity: 0;
		animation-delay: 10s;
		}
		@keyframes rotation-move {
		0% {
		transform: translate(0px, 0px);

		}
		100% {
		transform: translate(150em, 0px);
		}


		}
		.T1 {
		animation: 2s fadeIn;
		animation-fill-mode:forwards;
		animation-delay: 4s;
		}

		.i {
		font-size: 50em;
		animation: 2s fadeIn;
		animation-fill-mode:forwards;
		aniation-delay: 12s;
		}
		#group2 {

		}

	</style>
	<g id="svg_all">
		<g id="Layer_1" xmlns:cc="http://creativecommons.org/ns#" xmlns:dc="http://purl.org/dc/elements/1.1/" xmlns:inkscape="http://www.inkscape.org/namespaces/inkscape" xmlns:rdf="http://www.w3.org/1999/02/22-rdf-syntax-ns#" xmlns:sodipodi="http://sodipodi.sourceforge.net/DTD/sodipodi-0.dtd" xmlns:svg="http://www.w3.org/2000/svg">
			<path class="base" d="M192.7,58.1c-12.1,0-24.1,4.6-33.3,13.8C56.5,174.7,0,311.4,0,456.7C0,602,56.5,738.7,159.4,841.4
				c91.6,91.6,210,146.4,337.6,157.3v67h-90.4c-26.1,0-47.2,21.1-47.2,47.2c0,26,21.1,47.2,47.2,47.2h275.1
				c26.1,0,47.2-21.1,47.2-47.2c0-26-21.1-47.2-47.2-47.2h-90.4v-67c127.6-10.9,246-65.8,337.6-157.3c18.4-18.4,18.4-48.3,0-66.7
				c-18.4-18.4-48.3-18.4-66.7,0c-84.9,84.9-197.9,131.7-318.1,131.7c-120.1,0-233.1-46.8-318.1-131.7S94.3,576.8,94.3,456.7
				c0-120.2,46.8-233.1,131.7-318.1c18.4-18.4,18.4-48.2,0-66.7C216.8,62.7,204.8,58.1,192.7,58.1z M544.1,64.2L544.1,64.2
				M936.6,456.7 M544.1,849.2 M151.7,456.7 M246.1,456.7 M842.3,456.7"/>
				<text transform="matrix(1 0 0 1 0 1116.995)" class="text1 text2">Created by logan</text>
				<text transform="matrix(1 0 0 1 0 1121.995)" class="text1 text2">from the Noun Project</text>
			</g>
			<g id="group1" class='move'>
				<animateTransform attributeName="transform"
                          attributeType="XML"
                          type="rotate"
                          from="0"
                          to="360"
                          dur="3s"
                          repeatCount="indefinite"
                          ></animateTransform>
				<g id="Layer_2">
					<!--<polygon class="st3" points="659.7,472.3 659.7,475.7 662.6,477.4 665.5,475.7 665.5,472.3 662.6,470.6 	"/>-->
					<circle class="globe" cx="537.1" cy="473.1" r="350"/>
					<text x="275" y="750" class="T1">T</text>
					 
					<text class="b">b</text>
					<text class="e">e</text>
					<text class="t">t</text>
				</g>
				<g id="Layer_3">
					<path class="terrain" d="M199.9,378.9c40.9-13.4,81.8-26.9,122.7-40.3c26,25.5,52,51,78,76.5c81.2-14,145.6-70.8,163.5-144
						c18.3-74.5-19.1-135.6-27-148"/>
						<path class="terrain" d="M407.2,798.7c-34.9-58-34.8-123.1-2.1-161.1c38-44.3,105.5-34.8,129-31.5c121.5,17.1,184.5,142,193.8,161"/>
				</g>
			</g>
			<g id="group2">
				<g id="Layer_4">
					<!--<polygon class="st3" points="659.7,472.3 659.7,475.7 662.6,477.4 665.5,475.7 665.5,472.3 662.6,470.6 	"/>-->
					<circle class="globe" cx="537.1" cy="473.1" r="350"/>
					 
					<text x="275" y="750" class="i">i</text>
					<text class="b">b</text>
					<text class="e">e</text>
					<text class="t">t</text>
				</g>
				<g id="Layer_5">
					<path class="terrain" d="M199.9,378.9c40.9-13.4,81.8-26.9,122.7-40.3c26,25.5,52,51,78,76.5c81.2-14,145.6-70.8,163.5-144
						c18.3-74.5-19.1-135.6-27-148"/>
						<path class="terrain" d="M407.2,798.7c-34.9-58-34.8-123.1-2.1-161.1c38-44.3,105.5-34.8,129-31.5c121.5,17.1,184.5,142,193.8,161"/>
				</g>
			</g>
			</g>
			 
			
		</svg>