<?xml version="1.0" encoding="utf-8"?>
<!-- Generator: Adobe Illustrator 21.1.0, SVG Export Plug-In . SVG Version: 6.00 Build 0)  -->
<svg version="1.1" id="Layer_1" xmlns="http://www.w3.org/2000/svg" xmlns:xlink="http://www.w3.org/1999/xlink" x="0px" y="0px"
	 viewBox="0 0 100 125" style="enable-background:new 0 0 100 125;" xml:space="preserve">
<style type="text/css">
	.st0{fill:#231F20;}
	.st0{fill:blue;}

	.st1{display:none;enable-background:new    ;}
	.st2{font-family:'Arial-BoldMT';}
	.st3{font-size:5px;}
</style>
<g>
	<path class="st0" d="M78.9,34.2c-5.9-14-22-20.6-36.1-14.7c-14,5.9-20.6,22-14.7,36.1c5.9,14,22,20.6,36.1,14.7
		C78.2,64.4,84.8,48.2,78.9,34.2z"/>
	<path class="st0" d="M75.5,34L66,38c-1.5-3.2-3.2-6.1-5.1-8.6c2.3-1.5,4.5-3.2,6.4-4.9C70.8,26.8,73.6,30.1,75.5,34z"/>
	<path class="st0" d="M51.6,44.1l-9.1,3.8c-1.2-3.2-2-6.3-2.4-9.2c2.7-0.7,5.4-1.6,8.1-2.7L51.6,44.1z"/>
	<path class="st0" d="M50.9,34.9c2.7-1.2,5.2-2.5,7.6-3.9c1.8,2.3,3.5,5.1,4.9,8.2L54.3,43L50.9,34.9z"/>
	<path class="st0" d="M52.7,46.7l3.4,8c-2.7,1.2-5.2,2.5-7.6,3.9c-1.8-2.3-3.5-5.1-4.9-8.2L52.7,46.7z"/>
	<path class="st0" d="M55.4,45.6l9.1-3.8c1.2,3.2,2,6.3,2.4,9.2c-2.7,0.7-5.4,1.6-8.1,2.7L55.4,45.6z"/>
	<path class="st0" d="M64.7,23c-1.7,1.5-3.6,2.9-5.7,4.2l-0.1-0.1c-2.9-3.2-6.1-5.5-9.3-6.5c-0.1,0-0.1,0-0.2,0
		C54.8,19.7,60.1,20.6,64.7,23z"/>
	<path class="st0" d="M48.9,23.4c1.6,0.5,3.5,1.5,5.3,3c0.8,0.7,1.6,1.5,2.4,2.3c-2.1,1.3-4.4,2.4-6.8,3.5L46,23.1
		C46.8,23,47.8,23.1,48.9,23.4z"/>
	<path class="st0" d="M41.4,26.5c0.5-1,1.2-1.7,1.9-2.3l3.8,9.1c-2.4,1-4.9,1.8-7.3,2.4C39.6,32,40.2,28.7,41.4,26.5z"/>
	<path class="st0" d="M38.9,25c0,0.1-0.1,0.1-0.1,0.2c-1,2-1.7,4.4-1.9,7c-0.1,1.4-0.1,2.8,0,4.3c-2.4,0.5-4.7,0.9-7,1.1
		C31.5,32.6,34.6,28.2,38.9,25z"/>
	<path class="st0" d="M29.3,40.5c2.6-0.2,5.3-0.6,8-1.1c0.4,3.1,1.3,6.3,2.6,9.6l-9.5,4C28.8,48.9,28.5,44.6,29.3,40.5z"/>
	<path class="st0" d="M31.4,55.7l9.6-4c1.5,3.2,3.2,6.1,5.1,8.6c-2.3,1.5-4.5,3.2-6.4,4.9C36.2,62.8,33.3,59.6,31.4,55.7z"/>
	<path class="st0" d="M42.2,66.7c1.7-1.5,3.6-2.9,5.7-4.2l0.1,0.1c2.9,3.2,6.1,5.5,9.3,6.5c0.1,0,0.1,0,0.2,0
		C52.1,70,46.8,69.1,42.2,66.7z"/>
	<path class="st0" d="M58.1,66.3c-1.6-0.5-3.5-1.5-5.3-3c-0.8-0.7-1.6-1.5-2.4-2.3c2.1-1.3,4.4-2.4,6.8-3.5l3.8,9.1
		C60.1,66.7,59.1,66.6,58.1,66.3z"/>
	<path class="st0" d="M65.6,63.1c-0.5,1-1.2,1.7-1.9,2.3l-3.8-9.1c2.4-1,4.9-1.8,7.3-2.4C67.3,57.7,66.7,61,65.6,63.1z"/>
	<path class="st0" d="M68,64.7c0-0.1,0.1-0.1,0.1-0.2c1-2,1.7-4.4,1.9-7c0.1-1.4,0.1-2.8,0-4.3c2.4-0.5,4.7-0.9,7-1.1
		C75.4,57.1,72.3,61.5,68,64.7z"/>
	<path class="st0" d="M77.7,49.2c-2.6,0.2-5.3,0.6-8,1.1c-0.4-3.1-1.3-6.3-2.6-9.6l9.5-4C78.1,40.8,78.4,45.1,77.7,49.2z"/>
</g>
<text transform="matrix(1 0 0 1 0 115)" class="st1 st2 st3">Created by ivisual</text>
<text transform="matrix(1 0 0 1 0 120)" class="st1 st2 st3">from the Noun Project</text>
</svg>
