<?xml version="1.0" encoding="UTF-8" standalone="no"?>
<svg
   xmlns:dc="http://purl.org/dc/elements/1.1/"
   xmlns:cc="http://creativecommons.org/ns#"
   xmlns:rdf="http://www.w3.org/1999/02/22-rdf-syntax-ns#"
   xmlns:svg="http://www.w3.org/2000/svg"
   xmlns="http://www.w3.org/2000/svg"
   xmlns:sodipodi="http://sodipodi.sourceforge.net/DTD/sodipodi-0.dtd"
   xmlns:inkscape="http://www.inkscape.org/namespaces/inkscape"
   version="1.1"
   x="0px"
   y="0px"
   viewBox="0 0 100 125"
   style="enable-background:new 0 0 100 100;"
   xml:space="preserve"
   id="svg3748"
   sodipodi:docname="noun_1026147_cc.svg"
   inkscape:version="0.92.1 r15371"><metadata
     id="metadata3754"><rdf:RDF><cc:Work
         rdf:about=""><dc:format>image/svg+xml</dc:format><dc:type
           rdf:resource="http://purl.org/dc/dcmitype/StillImage" /></cc:Work></rdf:RDF></metadata><defs
     id="defs3752" /><sodipodi:namedview
     pagecolor="#ffffff"
     bordercolor="#666666"
     borderopacity="1"
     objecttolerance="10"
     gridtolerance="10"
     guidetolerance="10"
     inkscape:pageopacity="0"
     inkscape:pageshadow="2"
     inkscape:window-width="761"
     inkscape:window-height="429"
     id="namedview3750"
     showgrid="false"
     inkscape:zoom="1.888"
     inkscape:cx="58.305477"
     inkscape:cy="87.076271"
     inkscape:window-x="100"
     inkscape:window-y="200"
     inkscape:window-maximized="0"
     inkscape:current-layer="svg3748" /><g
     id="g3742"
     transform="matrix(1.0221874,0,0,1,-1.0999624,12)"><path
       d="m 35.5,41 c 4.2,0 8.4,-0.1 10.6,-1.5 2.2,-1.4 0.7,-7.2 0.7,-7.2 -1.2,0.5 -3.7,-0.5 -3.7,-0.5 -4.3,-1.3 -11.8,-1.1 -13.4,-0.6 -1.6,0.5 -3.7,0 -3.7,0 0,0 -0.9,3.3 -0.2,6.5 0.7,3.2 5.5,3.3 9.7,3.3 z"
       id="path3716"
       inkscape:connector-curvature="0" /><path
       d="M 36,52.6 C 44.2,52.1 46.3,48.4 47,46.5 48,43.9 46.7,41 46.7,41 46.1,41.5 42.2,42.9 35.8,43.1 29.4,43.4 26,41.2 26,41.2 c -1.4,8.1 4.5,11.7 10,11.4 z"
       id="path3718"
       inkscape:connector-curvature="0" /><path
       d="m 38.6,62.6 c 4.5,-0.5 9.3,-3.8 10.2,-7 0.7,-2.4 -1.1,-6.2 -1.1,-6.2 -0.6,1 -2.1,3.6 -9.9,4.7 -7.7,1.1 -10.2,-2.8 -10.2,-2.8 -0.8,4.6 0.1,7.7 2.5,9.4 2.4,1.8 6.2,2.1 8.5,1.9 z"
       id="path3720"
       inkscape:connector-curvature="0" /><path
       d="m 46.6,71.3 c 5.7,-3.4 6.2,-6 6.5,-7.4 C 53.4,62.5 53,60.6 52,59.3 51,58 49.3,56.9 49.3,56.9 48.9,58.1 48.4,61.2 42.7,63.4 36.4,65.8 30.3,63 30.3,63 c 0,2.2 2.3,7.8 5.6,9.3 1,0.5 4.9,2.3 10.7,-1 z"
       id="path3722"
       inkscape:connector-curvature="0" /><path
       d="M 59.4,71.7 C 59.9,70.9 60,70 59.5,69.2 58.9,68.1 58,66.9 57.3,66.3 c -1,-0.8 -2.5,-1.6 -2.5,-1.6 0,0 0.9,1.9 -5,6.7 -6,4.7 -10.8,3.7 -10.8,3.7 0.6,3 2.6,5.3 4.2,6.5 1,0.8 2.4,1 3.5,0.4 2.1,-1 5.8,-3.3 7.8,-4.8 2.1,-1.6 4,-4.1 4.9,-5.5 z"
       id="path3724"
       inkscape:connector-curvature="0" /><path
       d="m 68.3,79 c -1.4,1 -10.8,12.8 -10.8,12.8 0,0 7.9,7 13.3,-1.3 C 74.5,84.7 68.3,79 68.3,79 Z"
       id="path3726"
       inkscape:connector-curvature="0" /><path
       d="m 44.9,4.7 c 0,0 0,0 0,0 2,2.5 3.4,7.1 2.7,9.7 -0.8,3.5 -3,6.3 -4,7.4 -0.3,0.3 -0.3,0.9 -0.1,1.2 0.2,0.3 0.5,0.4 0.8,0.4 0.3,0 0.6,-0.1 0.8,-0.4 1,-1.3 2.7,-3.9 3.8,-7.8 C 50.2,10.3 46.7,5.6 45.4,4.1 45.4,3.8 45.3,3.4 45,3.1 44.7,2.8 44.3,2.6 44,2.6 c -0.2,0 -0.3,0.1 -0.4,0.2 -0.3,0.3 -0.2,0.9 0.3,1.4 0.3,0.3 0.7,0.5 1,0.5 z"
       id="path3728"
       inkscape:connector-curvature="0" /><path
       d="m 53.7,86.9 c 0,0 0,0 0,0 -0.1,0 -0.2,-0.1 -0.3,-0.1 -0.5,0 -0.9,0.4 -0.9,0.9 0.1,2.2 0.3,6.2 0.3,7 0,1 -0.2,1.6 -0.7,1.8 -0.5,0.1 -0.9,1.5 0.2,1.5 0,0 0,0 0,0 1.2,0 1.5,-1.4 1.5,-1.4 0,0 0,0 -0.1,-0.5 -0.1,-0.4 0.4,-6.2 0.5,-8.3 0.2,-0.4 -0.1,-0.8 -0.5,-0.9 z"
       id="path3730"
       inkscape:connector-curvature="0" /><path
       d="M 74.4,73.4 C 74.3,73 74,72.8 73.8,72.8 c -0.4,0 -0.9,0.4 -0.9,0.8 0,0.5 -0.5,0.9 -1.5,1.2 -0.7,0.2 -4.6,1.2 -6.7,1.8 -0.6,0.2 -0.9,0.9 -0.5,1.4 0,0 0,0 0,0 0.2,0.2 0.4,0.4 0.7,0.4 0.1,0 0.2,0 0.3,-0.1 2,-0.8 7.3,-2.9 7.8,-2.9 0.5,-0.1 0.5,-0.1 0.5,-0.1 0,0 1.2,-0.8 0.9,-1.9 z"
       id="path3732"
       inkscape:connector-curvature="0" /><path
       d="m 65.4,79.4 c -0.2,0 -0.3,0.1 -0.5,0.1 -0.6,0 -1.2,-0.3 -1.6,-0.8 -0.4,-0.5 -0.5,-1.2 -0.3,-1.8 0.2,-0.6 0.7,-1.1 1.4,-1.3 0.4,-0.1 0.8,-0.2 1.2,-0.3 -0.4,-0.5 -0.9,-1 -1.3,-1.6 -1.1,-1.2 -2.8,-1.5 -2.8,-1.5 0,0 -2,2.8 -6.1,6.7 -4.1,3.9 -8.4,4.9 -8.4,4.9 -0.4,3.1 2.6,5.3 4.5,6.4 0,-0.7 -0.1,-1.4 -0.1,-2.1 0,-0.5 0.2,-1.1 0.6,-1.5 0.4,-0.4 0.9,-0.6 1.4,-0.6 v 0 c 0.2,0 0.4,0 0.7,0.1 0.9,0.3 1.4,1.1 1.3,2 -0.1,1.1 -0.1,2 -0.2,2.8 0.5,-0.1 0.8,-0.2 0.8,-0.2 1.3,-2 5.7,-6.5 7.3,-8.6 0.7,-1 1.5,-2 2.1,-2.7 z"
       id="path3734"
       inkscape:connector-curvature="0" /><path
       d="m 30.2,20 c 0,0 3.2,-2.3 6.7,-2.1 3.1,0.2 5.5,1.3 6.7,2.1 0.1,-0.1 0.2,-0.3 0.3,-0.4 -0.2,-1.4 -1,-4.7 -4.2,-5.7 -0.7,-0.2 -1.9,-0.7 -2.9,0.6 0,0 -0.6,-0.9 -2.1,-0.5 -2.6,0.7 -4.3,3.2 -4.5,6 z"
       id="path3736"
       inkscape:connector-curvature="0" /><path
       d="m 29,23.8 c 0.2,0 0.5,-0.1 0.7,-0.3 0.3,-0.3 0.4,-0.8 0.2,-1.2 -0.8,-1.7 -2.7,-6.3 -2.8,-10.1 0,-2.5 2,-6.3 4.3,-8.4 0.3,0 0.6,-0.1 0.9,-0.3 0.5,-0.4 0.7,-1 0.4,-1.4 -0.2,0 -0.4,-0.1 -0.6,-0.1 -0.3,0 -0.6,0.1 -0.9,0.4 -0.4,0.3 -0.6,0.7 -0.5,1.1 -1.9,1.6 -5.3,5 -5.1,9.5 0.2,4.4 1.7,8.4 2.5,10.3 0.1,0.3 0.5,0.5 0.9,0.5 z"
       id="path3738"
       inkscape:connector-curvature="0" /><path
       d="m 29,24.9 c -0.4,0 -0.9,-0.1 -1.2,-0.4 -1.1,1.8 -1.5,3.5 -1.1,4.6 0.6,1.5 3.8,0.4 9.3,0 5.5,-0.4 9.5,2.6 10.5,1.6 0.6,-0.6 0.8,-1.5 0.6,-2.4 -0.3,-1.1 -0.8,-2.5 -1.4,-3.7 0,0 -0.1,-0.1 -0.2,-0.3 -0.3,0.2 -0.7,0.3 -1.1,0.3 -0.7,0 -1.4,-0.3 -1.7,-0.9 -0.5,-0.7 -0.5,-1.6 0,-2.3 -1.4,-0.9 -3.4,-1.7 -6.2,-1.6 -2.3,0 -4.2,0.8 -5.7,1.8 0.1,0.2 0.1,0.3 0.2,0.4 0.4,0.8 0.2,1.8 -0.5,2.4 -0.5,0.3 -1,0.5 -1.5,0.5 z"
       id="path3740"
       inkscape:connector-curvature="0" /></g><text
     x="0"
     y="115"
     fill="#000000"
     font-size="5px"
     font-weight="bold"
     font-family="'Helvetica Neue', Helvetica, Arial-Unicode, Arial, Sans-serif"
     id="text3744"><!--Created by parkjisun--></text>
<text
     x="0"
     y="120"
     fill="#000000"
     font-size="5px"
     font-weight="bold"
     font-family="'Helvetica Neue', Helvetica, Arial-Unicode, Arial, Sans-serif"
     id="text3746"><!--from the Noun Project--></text>
</svg>