<?xml version="1.0" encoding="UTF-8" standalone="no"?>
<svg
   xmlns:dc="http://purl.org/dc/elements/1.1/"
   xmlns:cc="http://creativecommons.org/ns#"
   xmlns:rdf="http://www.w3.org/1999/02/22-rdf-syntax-ns#"
   xmlns:svg="http://www.w3.org/2000/svg"
   xmlns="http://www.w3.org/2000/svg"
   xmlns:sodipodi="http://sodipodi.sourceforge.net/DTD/sodipodi-0.dtd"
   xmlns:inkscape="http://www.inkscape.org/namespaces/inkscape"
   version="1.1"
   x="0px"
   y="0px"
   viewBox="0 0 100 125"
   style="enable-background:new 0 0 100 100;"
   xml:space="preserve"
   id="svg38"
   sodipodi:docname="noun_1026142_cc.svg"
   inkscape:version="0.92.1 r15371"><metadata
     id="metadata44"><rdf:RDF><cc:Work
         rdf:about=""><dc:format>image/svg+xml</dc:format><dc:type
           rdf:resource="http://purl.org/dc/dcmitype/StillImage" /></cc:Work></rdf:RDF></metadata><defs
     id="defs42" /><sodipodi:namedview
     pagecolor="#ffffff"
     bordercolor="#666666"
     borderopacity="1"
     objecttolerance="10"
     gridtolerance="10"
     guidetolerance="10"
     inkscape:pageopacity="0"
     inkscape:pageshadow="2"
     inkscape:window-width="718"
     inkscape:window-height="429"
     id="namedview40"
     showgrid="false"
     inkscape:zoom="6.464"
     inkscape:cx="45.5352"
     inkscape:cy="98.019802"
     inkscape:window-x="100"
     inkscape:window-y="100"
     inkscape:window-maximized="0"
     inkscape:current-layer="svg38" /><g
     id="g32"
     transform="matrix(0.52123985,0,0,1,23.913876,5.6578125)"><path
       d="m 49.9,52.7 c -1.3,0 -2.4,-0.3 -3.2,-0.6 0,0.7 0.1,1.6 0.2,2.5 1,0.4 3.4,1.1 6.1,-0.1 0.1,-0.9 0.1,-1.8 0.2,-2.5 -1.2,0.5 -2.3,0.7 -3.3,0.7 z"
       id="path10"
       inkscape:connector-curvature="0" /><path
       d="m 47.1,56.2 c 0.1,0.9 0.3,1.7 0.4,2.6 0.8,0.4 2.4,0.8 4.9,-0.1 0.2,-0.8 0.3,-1.7 0.4,-2.5 -1.1,0.4 -2,0.5 -2.9,0.5 -1.1,-0.1 -2.1,-0.3 -2.8,-0.5 z"
       id="path12"
       inkscape:connector-curvature="0" /><path
       d="m 49.9,49.6 c -1.2,0 -3,-2.4 -3,-2.4 0,0 -0.1,1.1 -0.2,2.6 0,0.2 0,0.4 0,0.8 0.9,0.4 3.5,1.4 6.5,-0.1 0,-0.3 0,-0.6 0,-0.7 0,-1.4 -0.2,-2.6 -0.2,-2.6 -0.3,0.6 -1.8,2.4 -3.1,2.4 z"
       id="path14"
       inkscape:connector-curvature="0" /><path
       d="m 48,60.3 c 0.5,1.4 1.1,2.5 2,2.7 v 0 c 0,0 0,0 0.1,0 0,0 0,0 0.1,0 v 0 c 0.9,-0.3 1.5,-1.4 2,-2.9 -0.9,0.2 -1.6,0.3 -2.3,0.3 -0.9,0.1 -1.4,0.1 -1.9,-0.1 z"
       id="path16"
       inkscape:connector-curvature="0" /><path
       d="m 47.3,34.8 c 0.1,-0.2 0.5,-1.3 0.5,-1.3 0,0 -1.3,-1.1 -2.1,0.4 -0.8,1.3 0.3,2.1 0.3,2.1 0.4,-0.7 1.3,-1.2 1.3,-1.2 z"
       id="path18"
       inkscape:connector-curvature="0" /><path
       d="m 52,33.2 c 0,0 0.4,1.1 0.5,1.3 0,0 0.9,0.6 1.3,1.2 0,0 1.1,-0.8 0.3,-2.2 C 53.3,32.2 52,33.2 52,33.2 Z"
       id="path20"
       inkscape:connector-curvature="0" /><path
       d="m 40.5,22.3 c 1,1 1.6,2 1.6,2 l 6.5,9.4 c -0.3,0.5 -0.5,1.2 -0.6,1.4 -1,0.5 -1.9,1.5 -2.2,3.7 -0.4,4.6 2.7,9.2 4.2,9.2 1.5,0 4.7,-4.5 4.1,-9.1 -0.2,-2.2 -1.3,-3.3 -2.2,-3.8 -0.2,-0.7 -0.5,-1.3 -0.8,-1.6 L 57.6,24 c 0,0 0.7,-1 1.6,-2 0,0 0.8,0.1 1.2,-0.5 0.4,-0.6 0.1,-0.8 -0.4,-0.8 -0.5,0 -1.9,1.2 -3.2,3.3 0,0 -5.1,7.3 -6.4,9 -0.4,-0.1 -0.7,-0.1 -1.3,0 0,0 -0.1,0 -0.1,0.1 C 47.5,31 42.8,24.3 42.8,24.3 41.4,22.2 40.1,21 39.6,21 c -0.5,0 -0.8,0.2 -0.4,0.8 0.5,0.6 1.3,0.5 1.3,0.5 z"
       id="path22"
       inkscape:connector-curvature="0" /><path
       d="m 44.9,41.8 c -0.5,-2.5 0.3,-4.9 0.3,-4.9 -6.7,-6 -23.2,-15.4 -31.4,-15.1 -4.3,0.2 -10.6,2 -11.5,4 -0.9,2 1.3,3.4 1.3,3.4 -0.8,2.3 1.5,4.1 1.5,4.1 -1,3 1.8,4.3 1.8,4.3 -0.4,3.5 2.7,4.4 2.7,4.4 -0.7,2.9 2.6,4.3 2.6,4.3 0.1,3.7 4,4.4 4,4.4 0,0 0.1,1.6 3.6,2.4 3.5,0.8 6.4,-3.7 10.3,-5.9 4,-2.2 14.8,-5.4 14.8,-5.4 z M 34.7,35.5 c 1.4,-1 0.3,-3.2 0.3,-3.2 2.5,0.9 4.9,3.2 4.9,3.2 0,0 -1.2,0.4 -1.5,1.1 -0.3,0.7 -1,2.9 -2.3,3 -1.3,0.1 -3.1,-1.4 -3.1,-1.4 0,0 0.2,-1.7 1.7,-2.7 z m -4.9,4.2 c 0,0 1.3,-0.2 1.8,0.4 0.4,0.7 -0.4,1 -0.4,1 -4.9,1.2 -9,3.2 -9,3.2 -0.2,-1.3 -1.4,-2.1 -1.4,-2.1 3.1,-1.8 9,-2.5 9,-2.5 z m -10,1.8 c -0.2,-1.3 -1.2,-2 -1.2,-2 3.6,-1.6 8.6,-2 8.6,-2 0,0 1.3,0 1.5,0.5 0.1,0.2 0,0.5 -0.2,0.6 -0.2,0.2 -0.5,0.3 -0.9,0.4 -2.6,0.3 -7.8,2.5 -7.8,2.5 z m 10.4,-9.9 c -0.4,1.1 0.3,1.4 -0.1,2.4 -0.3,0.8 -0.1,2.4 -0.1,2.4 0,0 -3.2,-2.2 -4.6,-3.5 -0.3,-0.3 -0.5,-0.6 -0.5,-1 0,-0.6 0.1,-1.5 0.6,-2.4 0.2,-0.3 0.5,-0.4 0.8,-0.3 1.2,0.2 4.3,0.8 5.9,1.5 -0.1,-0.1 -1.7,-0.1 -2,0.9 z m -1.1,-3.3 c 0,0 -4.5,-0.3 -4.9,-0.7 -0.4,-0.3 -4.1,-3 -4.1,-3 0,0 6,1.8 9,3.7 z M 15,32 c 4.8,-0.7 6.5,0 6.5,0 0,0 1.1,0.2 1.1,0.9 0,0.2 -0.1,0.4 -0.3,0.6 -0.3,0.3 -0.6,0.4 -1,0.4 -1.8,0 -5.4,1 -5.4,1 C 16.1,33.5 15,32 15,32 Z M 5.2,27.6 c -0.6,0 -1.1,-0.5 -1.1,-1.1 0,-0.6 0.5,-1.1 1.1,-1.1 0.6,0 1.1,0.5 1.1,1.1 0,0.6 -0.5,1.1 -1.1,1.1 z m 0.7,3 c 0,-0.6 0.5,-1.1 1.1,-1.1 0.6,0 1.1,0.5 1.1,1.1 0,0.6 -0.5,1.1 -1.1,1.1 -0.6,0 -1.1,-0.5 -1.1,-1.1 z m 1.5,4 c 0,-0.6 0.5,-1.1 1.1,-1.1 0.6,0 1.1,0.5 1.1,1.1 0,0.6 -0.5,1.1 -1.1,1.1 -0.6,0 -1.1,-0.5 -1.1,-1.1 z m 2.9,5.1 c -0.6,0 -1.1,-0.5 -1.1,-1.1 0,-0.6 0.5,-1.1 1.1,-1.1 0.6,0 1.1,0.5 1.1,1.1 0,0.6 -0.5,1.1 -1.1,1.1 z m 2.5,4.3 c -0.6,0 -1.1,-0.5 -1.1,-1.1 0,-0.6 0.5,-1.1 1.1,-1.1 0.6,0 1.1,0.5 1.1,1.1 0,0.6 -0.5,1.1 -1.1,1.1 z m 0.7,-15.6 c 2.6,-0.1 4.8,0.5 5.2,1.1 0.3,0.5 -0.1,1 -0.7,1.1 -0.5,0.1 -3.5,0.3 -3.5,0.3 0.2,-1.4 -1,-2.5 -1,-2.5 z m 2.2,19.9 c -0.6,0 -1.1,-0.5 -1.1,-1.1 0,-0.6 0.5,-1.1 1.1,-1.1 0.6,0 1.1,0.5 1.1,1.1 0,0.6 -0.5,1.1 -1.1,1.1 z m 1.1,-12.4 c 4.9,-1.6 7.8,-1.1 7.8,-1.1 0,0 1,0.3 1.2,1 0.2,0.7 -0.7,1 -0.7,1 -3.3,0.1 -7.1,1.5 -7.1,1.5 0.1,-1.8 -1.2,-2.4 -1.2,-2.4 z m 4,15.3 c -2.1,0.1 -2.5,-0.9 -2.5,-1.4 0,-0.5 0.7,-0.7 1,-0.7 1.4,0.2 2.9,0.5 3.3,0.8 0.4,0.2 0.3,1.2 -1.8,1.3 z m 4.1,-4.8 c -0.3,-0.4 -1.7,-1.5 -1.7,-1.5 2.1,-1.2 9.7,-3.5 10.7,-3 0,0 0,0 0,0 0.8,0.5 0.6,1.7 -0.3,1.9 -4.2,1.1 -7.8,4 -7.8,4 0,0 -0.6,-1 -0.9,-1.4 z"
       id="path24"
       inkscape:connector-curvature="0" /><path
       d="m 46.1,46.3 c 0,0 -1,-2.1 -1.1,-3.3 0,0 -12.4,3.8 -14.8,5.8 -0.7,0.5 -5.3,4.2 -6.9,8.2 0,0 -0.7,4.3 0.2,7.3 0.9,3 3.1,1.9 3.1,1.9 0,0 0.8,3.2 3.2,2.1 0,0 0.4,1.4 2.1,3 1.6,1.5 0.2,7.6 3,8 0,0 0.9,0.3 0.3,-0.7 -0.5,-1 -0.8,-6 0.4,-6.6 1.2,-0.5 1.9,-0.7 4.2,0.1 0,0 1.2,0.8 2,-1.3 0,0 1.2,-1.5 3.7,-1.4 2.5,0.1 1.1,-5.3 0,-7.1 -1.2,-1.9 -1.8,-11.1 0.6,-16 z M 25.8,63.6 c -0.6,0 -1.1,-0.5 -1.1,-1.1 0,-0.6 0.5,-1.1 1.1,-1.1 0.6,0 1.1,0.5 1.1,1.1 0,0.6 -0.5,1.1 -1.1,1.1 z m 3.3,2 c -0.6,0 -1.1,-0.5 -1.1,-1.1 0,-0.6 0.5,-1.1 1.1,-1.1 0.6,0 1.1,0.5 1.1,1.1 0,0.6 -0.5,1.1 -1.1,1.1 z m 3.7,2.8 c -0.6,0 -1.1,-0.5 -1.1,-1.1 0,-0.6 0.5,-1.1 1.1,-1.1 0.6,0 1.1,0.5 1.1,1.1 0,0.6 -0.5,1.1 -1.1,1.1 z m 4.5,1.1 c -0.6,0 -1.1,-0.5 -1.1,-1.1 0,-0.6 0.5,-1.1 1.1,-1.1 0.6,0 1.1,0.5 1.1,1.1 0,0.6 -0.5,1.1 -1.1,1.1 z M 37.9,59 c -1.4,-1.7 -3,-0.2 -3,-0.2 -0.9,-2 -2.6,-1 -2.6,-1 -0.8,-1.9 -2.7,-2 -2.7,-2 -0.2,-1.2 -1.7,-2.4 -1.7,-2.4 0,0 0.8,-1.8 4.1,-3.8 3.3,-2.1 6.5,-3.1 6.5,-3.1 -4.7,3.4 -5.2,9.1 -5.2,9.1 2.5,-7.9 7.4,-9.8 7.4,-9.8 l 1.4,0.7 c -4.5,4.7 -4,9.1 -4,9.1 0.2,-3 4.6,-8.8 4.6,-8.8 1.1,1 0.9,3.8 0.9,3.8 -1.2,2.5 -0.8,7.1 -0.8,7.1 -3.5,-0.6 -4.9,1.3 -4.9,1.3 z m 4.6,8.8 c -1.2,0 -2.2,-1 -2.2,-2.2 0,-1.2 1,-2.2 2.2,-2.2 1.2,0 2.2,1 2.2,2.2 0,1.3 -1,2.2 -2.2,2.2 z"
       id="path26"
       inkscape:connector-curvature="0" /><path
       d="m 97.8,25.5 c -1,-2 -7.2,-3.8 -11.5,-4 -8.2,-0.3 -24.7,9 -31.4,15.1 0,0 0.9,2.4 0.3,4.9 0,0 10.8,3.2 14.7,5.4 4,2.2 6.8,6.7 10.3,5.9 3.5,-0.8 3.6,-2.4 3.6,-2.4 0,0 3.8,-0.7 4,-4.4 0,0 3.3,-1.4 2.6,-4.3 0,0 3.1,-0.9 2.7,-4.5 0,0 2.7,-1.3 1.8,-4.3 0,0 2.3,-1.8 1.5,-4.1 0,0.1 2.3,-1.3 1.4,-3.3 z M 79.9,24.4 c 0,0 -3.6,2.6 -4.1,3 -0.4,0.3 -4.9,0.7 -4.9,0.7 3,-1.9 9,-3.7 9,-3.7 z M 84,34.6 c 0,0 -3.5,-1 -5.4,-1 -0.4,0 -0.7,-0.1 -1,-0.4 -0.1,-0.2 -0.3,-0.3 -0.3,-0.6 0,-0.7 1.1,-0.9 1.1,-0.9 0,0 1.6,-0.7 6.5,0 0.1,0.1 -1,1.6 -0.9,2.9 z M 73.8,28.9 c 0.3,-0.1 0.6,0.1 0.8,0.3 0.6,0.8 0.6,1.8 0.6,2.4 0,0.4 -0.2,0.8 -0.5,1 -1.4,1.3 -4.6,3.5 -4.6,3.5 0,0 0.2,-1.7 -0.1,-2.4 -0.4,-1 0.3,-1.3 -0.1,-2.4 -0.3,-1 -2,-1 -2,-1 1.5,-0.6 4.7,-1.2 5.9,-1.4 z m -1.4,9.9 c -0.3,0 -0.6,-0.2 -0.9,-0.4 -0.2,-0.2 -0.3,-0.4 -0.2,-0.6 0.2,-0.5 1.5,-0.5 1.5,-0.5 0,0 4.9,0.3 8.6,2 0,0 -1,0.7 -1.2,2 0,-0.1 -5.2,-2.2 -7.8,-2.5 z m 6.9,3.2 c 0,0 -1.2,0.8 -1.4,2.1 0,0 -4.1,-2 -9,-3.2 0,0 -0.9,-0.3 -0.4,-1 0.4,-0.7 1.8,-0.4 1.8,-0.4 0,0 5.8,0.6 9,2.5 z M 63.9,39.4 c -1.3,-0.1 -2,-2.3 -2.3,-3 -0.3,-0.7 -1.5,-1.1 -1.5,-1.1 0,0 2.4,-2.3 4.9,-3.2 0,0 -1.1,2.2 0.3,3.2 1.4,1 1.6,2.6 1.6,2.6 0,0 -1.7,1.6 -3,1.5 z m 11.2,6.8 c -0.3,0.4 -0.9,1.5 -0.9,1.5 0,0 -3.6,-2.9 -7.8,-4 -0.9,-0.2 -1.1,-1.5 -0.3,-1.9 0,0 0,0 0,0 1,-0.5 8.6,1.8 10.7,3 0.1,0 -1.3,1 -1.7,1.4 z m 4.1,4.8 c -2.1,-0.1 -2.2,-1.1 -1.8,-1.3 0.4,-0.2 1.9,-0.6 3.3,-0.8 0.3,0 1,0.1 1,0.7 0,0.5 -0.4,1.5 -2.5,1.4 z M 82,38 c 0,0 -3.8,-1.4 -7.1,-1.5 0,0 -0.9,-0.3 -0.7,-1 0.2,-0.7 1.2,-1 1.2,-1 0,0 2.9,-0.5 7.8,1.1 0,0 -1.3,0.7 -1.2,2.4 z m 2.3,10.1 c -0.6,0 -1.1,-0.5 -1.1,-1.1 0,-0.6 0.5,-1.1 1.1,-1.1 0.6,0 1.1,0.5 1.1,1.1 0,0.6 -0.4,1.1 -1.1,1.1 z M 82,30.4 c -0.5,-0.1 -1,-0.5 -0.7,-1.1 0.3,-0.5 2.5,-1.2 5.2,-1.1 0,0 -1.2,1.1 -1,2.5 0.1,0 -2.9,-0.2 -3.5,-0.3 z m 5.2,13.4 c -0.6,0 -1.1,-0.5 -1.1,-1.1 0,-0.6 0.5,-1.1 1.1,-1.1 0.6,0 1.1,0.5 1.1,1.1 0,0.6 -0.5,1.1 -1.1,1.1 z m 2.5,-4.3 c -0.6,0 -1.1,-0.5 -1.1,-1.1 0,-0.6 0.5,-1.1 1.1,-1.1 0.6,0 1.1,0.5 1.1,1.1 0,0.6 -0.5,1.1 -1.1,1.1 z m 1.8,-4 c -0.6,0 -1.1,-0.5 -1.1,-1.1 0,-0.6 0.5,-1.1 1.1,-1.1 0.6,0 1.1,0.5 1.1,1.1 0,0.6 -0.5,1.1 -1.1,1.1 z m 1.5,-4 c -0.6,0 -1.1,-0.5 -1.1,-1.1 0,-0.6 0.5,-1.1 1.1,-1.1 0.6,0 1.1,0.5 1.1,1.1 0,0.6 -0.5,1.1 -1.1,1.1 z m 1.8,-4.1 c -0.6,0 -1.1,-0.5 -1.1,-1.1 0,-0.6 0.5,-1.1 1.1,-1.1 0.6,0 1.1,0.5 1.1,1.1 0,0.6 -0.5,1.1 -1.1,1.1 z"
       id="path28"
       inkscape:connector-curvature="0" /><path
       d="M 69.8,48.6 C 67.4,46.6 55,42.8 55,42.8 c -0.1,1.2 -1.1,3.3 -1.1,3.3 2.4,4.9 1.8,14.1 0.7,15.9 -1.1,1.9 -2.5,7.3 0,7.1 2.5,-0.1 3.7,1.4 3.7,1.4 0.8,2.1 2,1.3 2,1.3 2.3,-0.8 3,-0.7 4.2,-0.1 1.2,0.5 1,5.6 0.4,6.6 -0.5,1 0.3,0.7 0.3,0.7 2.7,-0.4 1.3,-6.5 3,-8 1.6,-1.5 2.1,-3 2.1,-3 2.4,1.1 3.2,-2.1 3.2,-2.1 0,0 2.2,1.1 3.1,-1.9 0.9,-3 0.2,-7.3 0.2,-7.3 -1.7,-3.9 -6.3,-7.6 -7,-8.1 z m -12.3,19 c -1.2,0 -2.2,-1 -2.2,-2.2 0,-1.2 1,-2.2 2.2,-2.2 1.2,0 2.2,1 2.2,2.2 0,1.2 -1,2.2 -2.2,2.2 z m 5.2,1.7 c -0.6,0 -1.1,-0.5 -1.1,-1.1 0,-0.6 0.5,-1.1 1.1,-1.1 0.6,0 1.1,0.5 1.1,1.1 0,0.6 -0.5,1.1 -1.1,1.1 z m 4.5,-1.1 c -0.6,0 -1.1,-0.5 -1.1,-1.1 0,-0.6 0.5,-1.1 1.1,-1.1 0.6,0 1.1,0.5 1.1,1.1 0,0.6 -0.5,1.1 -1.1,1.1 z m 3.7,-2.8 c -0.6,0 -1.1,-0.5 -1.1,-1.1 0,-0.6 0.5,-1.1 1.1,-1.1 0.6,0 1.1,0.5 1.1,1.1 0,0.6 -0.5,1.1 -1.1,1.1 z m -0.4,-9.8 c 0,0 -1.9,0.1 -2.7,2 0,0 -1.8,-1 -2.6,1 0,0 -1.6,-1.5 -3,0.2 0,0 -1.4,-2 -4.9,-1.2 0,0 0.4,-4.6 -0.8,-7.1 0,0 -0.2,-2.9 0.9,-3.8 0,0 4.4,5.8 4.6,8.8 0,0 0.5,-4.4 -4,-9.1 l 1.4,-0.7 c 0,0 4.8,1.9 7.4,9.8 0,0 -0.4,-5.7 -5.2,-9.1 0,0 3.2,1 6.5,3.1 3.3,2.1 4.1,3.8 4.1,3.8 0,0 -1.5,1.2 -1.7,2.3 z m 3.7,7.7 c -0.6,0 -1.1,-0.5 -1.1,-1.1 0,-0.6 0.5,-1.1 1.1,-1.1 0.6,0 1.1,0.5 1.1,1.1 0,0.6 -0.5,1.1 -1.1,1.1 z"
       id="path30"
       inkscape:connector-curvature="0" /></g><text
     x="0"
     y="115"
     fill="#000000"
     font-size="5px"
     font-weight="bold"
     font-family="'Helvetica Neue', Helvetica, Arial-Unicode, Arial, Sans-serif"
     id="text34"><!--Created by parkjisun--></text>
<text
     x="0"
     y="120"
     fill="#000000"
     font-size="5px"
     font-weight="bold"
     font-family="'Helvetica Neue', Helvetica, Arial-Unicode, Arial, Sans-serif"
     id="text36"><!--from the Noun Project--></text>
</svg>