<svg xmlns="http://www.w3.org/2000/svg" xmlns:xlink="http://www.w3.org/1999/xlink" version="1.1" x="0px" y="0px" viewBox="0 0 100 125" enable-background="new 0 0 100 100" xml:space="preserve"><path d="M91.447,50c0-3.633-0.473-7.156-1.355-10.516c-0.483-2.731-1.835-7.046-5.494-12.269C77.176,15.982,64.442,8.553,50,8.553  c-11.427,0-21.789,4.648-29.294,12.154c-2.871,2.871-5.319,6.162-7.253,9.768c-0.775,1.333-1.39,2.559-1.625,3.379  C9.72,38.818,8.553,44.275,8.553,50c0,22.854,18.593,41.447,41.447,41.447c11.427,0,21.789-4.648,29.294-12.154  C86.799,71.789,91.447,61.427,91.447,50z M89.269,44.552c-0.041,0.169-0.087,0.326-0.138,0.469c-0.01,0.028-0.021,0.055-0.032,0.082  c-0.055,0.142-0.114,0.272-0.181,0.378c-0.004,0.006-0.008,0.01-0.011,0.015c-0.065,0.1-0.137,0.177-0.212,0.238  c-0.014,0.011-0.027,0.024-0.041,0.033c-0.078,0.053-0.162,0.081-0.252,0.085c-0.021,0.001-0.043-0.001-0.065-0.003  c-0.054-0.004-0.11-0.019-0.167-0.042c-0.024-0.01-0.048-0.017-0.074-0.031c-0.083-0.044-0.168-0.1-0.258-0.184  c-1.222-1.135-3.055-8.38-4.975-9.515c-0.24-0.142-0.461-0.255-0.668-0.346c-1.035-0.457-1.72-0.368-2.695-0.586  c-0.39-0.087-0.827-0.224-1.35-0.464c-0.141-0.065-0.266-0.119-0.382-0.167c-0.039-0.016-0.071-0.027-0.107-0.042  c-0.072-0.028-0.142-0.055-0.204-0.077c-0.036-0.012-0.067-0.021-0.1-0.032c-0.051-0.016-0.1-0.03-0.144-0.041  c-0.029-0.007-0.055-0.012-0.08-0.016c-0.037-0.007-0.071-0.011-0.101-0.013c-0.011-0.001-0.027-0.005-0.037-0.005  c-0.007,0-0.009,0.004-0.015,0.004c-0.05,0.002-0.092,0.01-0.118,0.029c0,0-0.001,0-0.001,0c-0.026,0.02-0.037,0.05-0.042,0.086  c-0.001,0.009-0.001,0.02-0.001,0.03c0.001,0.033,0.008,0.071,0.022,0.114c0.003,0.008,0.004,0.016,0.007,0.024  c0.02,0.053,0.048,0.113,0.084,0.178c0.008,0.015,0.018,0.032,0.027,0.048c0.032,0.056,0.068,0.115,0.108,0.177  c0.011,0.017,0.021,0.033,0.032,0.05c0.051,0.078,0.107,0.16,0.167,0.247c0.008,0.012,0.018,0.025,0.026,0.037  c0.058,0.082,0.119,0.168,0.182,0.255c0.035,0.048,0.07,0.098,0.106,0.148c0.044,0.061,0.089,0.123,0.133,0.186  c0.436,0.611,1.222,0.786,1.92,1.015s1.309,0.513,1.397,1.342c0.011,0.1-0.001,0.209-0.027,0.323  c-0.009,0.038-0.029,0.08-0.042,0.12c-0.026,0.078-0.051,0.157-0.091,0.239c-0.024,0.05-0.058,0.104-0.087,0.156  c-0.043,0.077-0.085,0.153-0.138,0.233c-0.038,0.057-0.083,0.116-0.126,0.174c-0.057,0.078-0.115,0.155-0.18,0.234  c-0.05,0.061-0.105,0.122-0.159,0.183c-0.069,0.079-0.14,0.157-0.215,0.237c-0.06,0.063-0.122,0.125-0.186,0.188  c-0.079,0.078-0.159,0.157-0.243,0.235c-0.068,0.063-0.137,0.126-0.207,0.188c-0.086,0.077-0.174,0.153-0.263,0.228  c-0.074,0.062-0.149,0.124-0.224,0.186c-0.091,0.074-0.184,0.146-0.277,0.218c-0.077,0.059-0.155,0.119-0.233,0.176  c-0.096,0.071-0.193,0.139-0.29,0.207c-0.077,0.054-0.154,0.109-0.232,0.161c-0.101,0.068-0.201,0.131-0.302,0.195  c-0.074,0.047-0.147,0.095-0.22,0.139c-0.105,0.064-0.208,0.121-0.311,0.179c-0.066,0.037-0.134,0.078-0.199,0.113  c-0.114,0.061-0.223,0.113-0.333,0.166c-0.05,0.024-0.103,0.053-0.153,0.075c-0.156,0.07-0.306,0.131-0.447,0.18  c-0.021,0.007-0.038,0.01-0.058,0.017c-0.118,0.039-0.232,0.072-0.337,0.093c-0.042,0.008-0.077,0.008-0.116,0.014  c-0.074,0.01-0.148,0.02-0.212,0.019c-0.112-0.002-0.212-0.019-0.289-0.06c-1.135-0.597-3.666-8.83-4.714-8.918  c-0.005,0-0.011-0.001-0.016-0.001c-0.03,0-0.04,0.03-0.06,0.045c-0.02,0.014-0.048,0.016-0.06,0.044  c-0.012,0.03-0.008,0.085-0.011,0.13c-0.002,0.042-0.012,0.074-0.006,0.128c0.006,0.057,0.026,0.136,0.04,0.205  c0.014,0.068,0.021,0.126,0.042,0.204c0.021,0.08,0.055,0.178,0.084,0.268c0.029,0.09,0.052,0.172,0.087,0.272  c0.033,0.095,0.077,0.205,0.116,0.309c0.042,0.113,0.08,0.219,0.129,0.34c0.044,0.11,0.096,0.231,0.145,0.348  c0.053,0.128,0.103,0.251,0.161,0.386c0.053,0.123,0.113,0.255,0.17,0.383c0.062,0.139,0.12,0.274,0.185,0.417  c0.053,0.116,0.109,0.236,0.164,0.354c0.076,0.164,0.15,0.326,0.229,0.493c0.044,0.093,0.09,0.188,0.135,0.282  c0.092,0.194,0.184,0.388,0.279,0.583c0.048,0.099,0.096,0.196,0.144,0.295c0.093,0.19,0.185,0.379,0.278,0.567  c0.055,0.111,0.109,0.217,0.163,0.327c0.087,0.174,0.174,0.349,0.259,0.519c0.03,0.059,0.058,0.113,0.087,0.172  c0.657,1.3,1.247,2.423,1.533,2.969c0.06,0.115,0.122,0.212,0.185,0.292c0.021,0.026,0.043,0.041,0.064,0.064  c0.043,0.047,0.085,0.096,0.129,0.129c0.027,0.02,0.055,0.029,0.083,0.045c0.039,0.022,0.078,0.049,0.117,0.062  c0.03,0.01,0.061,0.01,0.091,0.016c0.038,0.007,0.076,0.018,0.115,0.018c0.002,0,0.003,0.001,0.005,0.001  c0.013,0,0.027-0.005,0.041-0.006c0.062-0.003,0.124-0.011,0.187-0.028c0.029-0.008,0.057-0.019,0.086-0.029  c0.051-0.018,0.103-0.036,0.155-0.06c0.032-0.014,0.064-0.03,0.095-0.046c0.051-0.026,0.103-0.053,0.155-0.083  c0.034-0.019,0.067-0.038,0.101-0.058c0.068-0.04,0.136-0.081,0.204-0.123c0.059-0.036,0.119-0.071,0.179-0.106  c0.031-0.018,0.063-0.038,0.094-0.055c0.084-0.047,0.168-0.091,0.253-0.13c0.017-0.008,0.035-0.013,0.052-0.02  c0.067-0.028,0.134-0.053,0.2-0.072c0.029-0.008,0.059-0.012,0.088-0.018c0.055-0.012,0.111-0.02,0.166-0.023  c0.03-0.001,0.061,0.001,0.091,0.002c0.066,0.003,0.131,0.016,0.197,0.036c0.028,0.008,0.056,0.015,0.084,0.027  c0.091,0.038,0.182,0.088,0.273,0.166c1.222,1.047-3.055,5.848-4.015,7.943c-0.06,0.131-0.108,0.275-0.145,0.43  c-0.075,0.31-0.107,0.665-0.112,1.049c-0.015,1.153,0.219,2.575,0.315,3.869c0.032,0.431,0.048,0.849,0.035,1.237  c-0.033,0.971-0.251,1.762-0.878,2.144c-2.008,1.222-2.357,5.412-3.666,8.118c-0.095,0.196-0.199,0.38-0.308,0.558  c-0.034,0.056-0.071,0.108-0.107,0.162c-0.079,0.121-0.162,0.237-0.247,0.348c-0.042,0.054-0.084,0.108-0.127,0.16  c-0.092,0.111-0.186,0.215-0.283,0.315c-0.037,0.038-0.072,0.079-0.11,0.115c-0.134,0.13-0.273,0.251-0.415,0.36  c-0.027,0.021-0.056,0.037-0.083,0.057c-0.117,0.085-0.236,0.164-0.356,0.234c-0.049,0.029-0.099,0.054-0.149,0.08  c-0.104,0.055-0.209,0.103-0.314,0.146c-0.051,0.021-0.101,0.042-0.152,0.06c-0.121,0.043-0.243,0.076-0.365,0.103  c-0.032,0.007-0.064,0.018-0.096,0.024c-0.153,0.028-0.306,0.042-0.458,0.044c-0.032,0-0.063-0.004-0.095-0.005  c-0.143-0.004-0.284-0.021-0.424-0.049c-0.042-0.009-0.085-0.017-0.127-0.028c-0.164-0.043-0.325-0.1-0.481-0.179  c-0.018-0.009-0.035-0.022-0.053-0.032c-0.139-0.075-0.272-0.168-0.402-0.274c-0.038-0.031-0.076-0.063-0.114-0.097  c-0.143-0.13-0.281-0.272-0.409-0.442c-1.571-2.095-2.619-10.038-1.571-12.22c1.047-2.182-2.095-3.841-1.646-6.983  c0.038-0.269,0.059-0.509,0.071-0.737c0.003-0.054,0.005-0.108,0.007-0.16c0.006-0.217,0.002-0.419-0.018-0.599  c-0.002-0.019-0.007-0.034-0.009-0.052c-0.021-0.162-0.055-0.308-0.099-0.441c-0.011-0.034-0.022-0.069-0.034-0.101  c-0.053-0.136-0.116-0.259-0.195-0.365c-0.013-0.018-0.03-0.032-0.044-0.049c-0.074-0.09-0.159-0.168-0.254-0.237  c-0.023-0.017-0.046-0.036-0.07-0.051c-0.112-0.071-0.237-0.131-0.376-0.177c-0.028-0.01-0.06-0.017-0.089-0.025  c-0.127-0.037-0.265-0.067-0.413-0.087c-0.032-0.005-0.062-0.011-0.095-0.015c-0.174-0.02-0.362-0.029-0.563-0.031  c-0.016,0-0.029-0.003-0.045-0.003c-0.024,0-0.054,0.004-0.078,0.004c-0.25,0.002-0.518,0.015-0.808,0.039  c-0.032,0.003-0.068,0.007-0.1,0.01c-0.309,0.028-0.635,0.064-0.989,0.111c-0.189,0.025-0.376,0.032-0.56,0.029  c-0.086-0.001-0.17-0.012-0.254-0.019c-0.11-0.009-0.22-0.017-0.328-0.036c-0.085-0.015-0.169-0.038-0.252-0.059  c-0.104-0.026-0.208-0.051-0.31-0.085c-0.083-0.028-0.165-0.063-0.247-0.097c-0.099-0.041-0.197-0.082-0.293-0.131  c-0.081-0.041-0.16-0.087-0.239-0.134c-0.094-0.055-0.187-0.111-0.278-0.173c-0.078-0.053-0.154-0.11-0.229-0.168  c-0.088-0.068-0.176-0.138-0.262-0.213c-0.074-0.064-0.146-0.132-0.218-0.201c-0.083-0.08-0.165-0.164-0.246-0.251  c-0.069-0.075-0.137-0.151-0.204-0.23c-0.078-0.092-0.154-0.188-0.229-0.286c-0.064-0.084-0.128-0.17-0.19-0.258  c-0.072-0.103-0.142-0.211-0.211-0.319c-0.059-0.093-0.118-0.186-0.175-0.283c-0.067-0.114-0.13-0.232-0.193-0.352  c-0.053-0.101-0.107-0.201-0.157-0.305c-0.061-0.124-0.117-0.253-0.174-0.382c-0.047-0.107-0.095-0.213-0.139-0.323  c-0.055-0.136-0.105-0.276-0.156-0.417c-0.04-0.11-0.081-0.219-0.118-0.332c-0.048-0.147-0.092-0.3-0.136-0.451  c-0.033-0.113-0.068-0.224-0.098-0.34c-0.042-0.16-0.077-0.325-0.114-0.489c-0.025-0.112-0.053-0.222-0.076-0.336  c-0.037-0.186-0.066-0.377-0.096-0.567c-0.015-0.096-0.034-0.191-0.048-0.288c-0.04-0.29-0.073-0.584-0.097-0.882  c-0.391-4.888,4.952-10.277,7.287-10.737c0.26-0.051,0.504-0.081,0.742-0.1c0.067-0.005,0.132-0.008,0.198-0.011  c0.17-0.008,0.335-0.003,0.498,0.006c0.08,0.005,0.162,0.007,0.241,0.016c0.181,0.021,0.359,0.056,0.536,0.099  c0.047,0.011,0.094,0.017,0.14,0.03c0.222,0.062,0.443,0.144,0.667,0.243c0.062,0.027,0.125,0.063,0.188,0.094  c0.166,0.081,0.333,0.167,0.505,0.268c0.084,0.049,0.171,0.105,0.257,0.159c0.159,0.1,0.321,0.208,0.488,0.326  c0.092,0.065,0.184,0.13,0.279,0.2c0.182,0.134,0.37,0.279,0.565,0.432c0.086,0.067,0.167,0.13,0.256,0.201  c0.285,0.229,0.58,0.473,0.9,0.742c0.219,0.184,0.427,0.334,0.631,0.469c0.057,0.038,0.114,0.071,0.17,0.106  c0.159,0.096,0.314,0.179,0.466,0.247c0.043,0.019,0.087,0.043,0.13,0.061c0.186,0.076,0.367,0.133,0.543,0.172  c0.039,0.009,0.077,0.012,0.116,0.019c0.141,0.025,0.279,0.039,0.414,0.043c0.025,0.001,0.052,0.008,0.078,0.008  c0.023,0,0.046-0.006,0.069-0.006c0.126-0.003,0.249-0.015,0.371-0.034c0.03-0.005,0.061-0.006,0.091-0.012  c0.151-0.028,0.298-0.068,0.444-0.116c0.039-0.013,0.077-0.029,0.116-0.043c0.109-0.04,0.218-0.083,0.325-0.132  c0.047-0.021,0.095-0.044,0.142-0.067c0.106-0.052,0.211-0.107,0.316-0.164c0.036-0.02,0.072-0.039,0.108-0.059  c0.139-0.079,0.278-0.162,0.417-0.247c0.051-0.032,0.103-0.064,0.154-0.096c0.121-0.075,0.242-0.151,0.364-0.227  c0.104-0.065,0.208-0.128,0.313-0.192c0.05-0.03,0.099-0.06,0.149-0.089c0.147-0.086,0.294-0.171,0.445-0.25  c2.008-1.047-0.524-1.484-1.746-1.513c-1.222-0.03-1.135-1.978-1.92-2.589c-0.05-0.039-0.095-0.067-0.134-0.086  c-0.013-0.006-0.023-0.006-0.036-0.01c-0.024-0.008-0.049-0.018-0.069-0.018c-0.001,0-0.003-0.001-0.004-0.001  c-0.003,0-0.004,0.004-0.007,0.004c-0.043,0.002-0.078,0.023-0.106,0.059c-0.003,0.004-0.008,0.006-0.011,0.011  c-0.027,0.039-0.047,0.094-0.063,0.159c-0.003,0.012-0.006,0.024-0.009,0.036c-0.015,0.067-0.027,0.142-0.037,0.225  c-0.012,0.095-0.024,0.197-0.037,0.301c-0.001,0.005-0.002,0.01-0.002,0.015c-0.012,0.09-0.028,0.181-0.046,0.27  c-0.003,0.014-0.006,0.029-0.009,0.043c-0.02,0.088-0.047,0.172-0.08,0.25c-0.006,0.015-0.013,0.03-0.02,0.044  c-0.036,0.076-0.079,0.145-0.133,0.202c-0.008,0.009-0.019,0.016-0.027,0.024c-0.06,0.057-0.129,0.104-0.217,0.13  c-0.046,0.014-0.087,0.014-0.127,0.011c-0.021-0.002-0.041-0.008-0.061-0.015c-0.023-0.007-0.045-0.015-0.066-0.028  c-0.018-0.012-0.036-0.027-0.053-0.043c-0.019-0.018-0.038-0.036-0.056-0.059c-0.016-0.021-0.032-0.044-0.048-0.068  c-0.017-0.027-0.034-0.054-0.05-0.085c-0.015-0.029-0.031-0.06-0.046-0.092c-0.016-0.034-0.032-0.069-0.048-0.107  c-0.016-0.038-0.032-0.077-0.049-0.119s-0.033-0.084-0.05-0.129c-0.027-0.07-0.055-0.142-0.084-0.219  c-0.018-0.046-0.035-0.091-0.054-0.139c-0.021-0.054-0.044-0.108-0.067-0.164c-0.019-0.047-0.039-0.093-0.06-0.141  c-0.024-0.055-0.05-0.11-0.077-0.166c-0.023-0.049-0.046-0.097-0.071-0.147c-0.029-0.056-0.06-0.113-0.092-0.17  c-0.027-0.049-0.054-0.098-0.084-0.147c-0.035-0.057-0.074-0.114-0.112-0.172c-0.032-0.048-0.064-0.097-0.099-0.145  c-0.042-0.057-0.09-0.113-0.136-0.17c-0.038-0.046-0.075-0.093-0.116-0.138c-0.052-0.057-0.11-0.111-0.167-0.166  c-0.044-0.043-0.086-0.086-0.134-0.128c-0.064-0.055-0.136-0.107-0.206-0.16c-0.05-0.037-0.095-0.076-0.148-0.112  c-0.084-0.056-0.178-0.107-0.271-0.159c-0.049-0.027-0.093-0.057-0.144-0.083c-0.149-0.075-0.309-0.145-0.482-0.207  c-0.075-0.027-0.136-0.046-0.187-0.06c-0.016-0.004-0.026-0.005-0.039-0.008c-0.03-0.006-0.058-0.012-0.078-0.013  c-0.002,0-0.008-0.002-0.01-0.002c-0.004,0-0.001,0.004-0.004,0.004c-0.034,0.002-0.049,0.015-0.043,0.04  c0,0.002-0.001,0.002-0.001,0.004c0.009,0.027,0.041,0.068,0.085,0.116c0.008,0.008,0.014,0.016,0.023,0.025  c0.048,0.05,0.11,0.108,0.185,0.174c0.014,0.013,0.03,0.026,0.045,0.039c0.08,0.07,0.169,0.146,0.269,0.229  c0.007,0.006,0.015,0.012,0.022,0.018c0.111,0.092,0.231,0.191,0.359,0.295c0.112,0.092,0.229,0.189,0.348,0.287  c0.027,0.022,0.053,0.044,0.08,0.067c0.123,0.103,0.247,0.208,0.37,0.314c0.02,0.017,0.039,0.034,0.058,0.051  c0.129,0.112,0.257,0.226,0.378,0.339c0.083,0.077,0.147,0.151,0.199,0.221c0.017,0.023,0.027,0.045,0.041,0.067  c0.028,0.046,0.054,0.091,0.069,0.133c0.009,0.024,0.013,0.047,0.018,0.07c0.008,0.037,0.013,0.074,0.012,0.108  c-0.001,0.022-0.003,0.043-0.007,0.063c-0.007,0.032-0.018,0.062-0.033,0.091c-0.009,0.018-0.017,0.035-0.029,0.052  c-0.021,0.028-0.047,0.054-0.076,0.078c-0.014,0.012-0.026,0.026-0.042,0.037c-0.042,0.029-0.09,0.054-0.143,0.075  c-0.008,0.003-0.013,0.008-0.021,0.01c-0.062,0.023-0.13,0.041-0.202,0.053c-0.022,0.004-0.046,0.005-0.069,0.008  c-0.052,0.006-0.104,0.012-0.159,0.013c-0.021,0-0.044-0.001-0.065-0.002c-0.109-0.002-0.222-0.013-0.336-0.037  c-0.004-0.001-0.008-0.001-0.012-0.002c-0.115-0.026-0.229-0.067-0.34-0.117c-0.021-0.009-0.042-0.018-0.063-0.029  c-0.106-0.053-0.208-0.119-0.301-0.197c-0.017-0.014-0.033-0.031-0.049-0.046c-0.094-0.087-0.181-0.184-0.25-0.3  c-0.081-0.137-0.186-0.261-0.3-0.379c-0.028-0.029-0.055-0.056-0.084-0.084c-0.119-0.112-0.247-0.217-0.388-0.308  c-0.009-0.006-0.018-0.01-0.027-0.015c-0.136-0.086-0.282-0.16-0.431-0.226c-0.039-0.017-0.076-0.034-0.115-0.049  c-0.158-0.063-0.32-0.118-0.483-0.157c-0.017-0.004-0.033-0.005-0.05-0.009c-0.151-0.034-0.3-0.054-0.447-0.065  c-0.039-0.003-0.076-0.006-0.114-0.007c-0.032-0.001-0.065-0.006-0.096-0.006c-0.127,0-0.249,0.01-0.367,0.029  c-0.016,0.003-0.029,0.008-0.044,0.011c-0.131,0.024-0.251,0.063-0.364,0.112c-0.033,0.014-0.065,0.029-0.096,0.046  c-0.12,0.064-0.23,0.138-0.318,0.235c-0.051,0.056-0.118,0.133-0.193,0.218c-0.049,0.056-0.107,0.122-0.165,0.188  c-0.026,0.03-0.052,0.059-0.079,0.09c-0.081,0.092-0.17,0.191-0.265,0.295c-0.019,0.021-0.04,0.043-0.059,0.064  c-0.078,0.086-0.161,0.174-0.246,0.265c-0.03,0.031-0.059,0.063-0.09,0.095c-0.109,0.114-0.222,0.23-0.339,0.346  c-0.003,0.003-0.006,0.005-0.008,0.008c-0.112,0.111-0.227,0.221-0.344,0.329c-0.034,0.032-0.069,0.063-0.103,0.094  c-0.098,0.088-0.196,0.174-0.296,0.258c-0.029,0.024-0.057,0.049-0.086,0.072c-0.124,0.101-0.248,0.197-0.373,0.286  c-0.028,0.02-0.056,0.038-0.084,0.057c-0.1,0.069-0.199,0.133-0.298,0.191c-0.034,0.02-0.069,0.041-0.103,0.059  c-0.123,0.068-0.246,0.128-0.364,0.173c-0.004,0.002-0.008,0.002-0.012,0.003c-0.113,0.042-0.223,0.069-0.33,0.086  c-0.031,0.005-0.061,0.007-0.092,0.01c-0.105,0.009-0.208,0.011-0.304-0.009c-0.002,0-0.004-0.002-0.006-0.002  c-0.1-0.022-0.193-0.067-0.281-0.126c-0.013-0.009-0.027-0.015-0.039-0.025c-0.083-0.063-0.159-0.148-0.229-0.25  c-0.013-0.02-0.026-0.04-0.039-0.061c-0.067-0.111-0.127-0.24-0.177-0.395c-0.008-0.024-0.014-0.052-0.022-0.077  c-0.05-0.171-0.094-0.36-0.124-0.584c-0.524-3.928,3.055-1.92,3.404-3.317c0.224-0.897-0.484-1.648-0.606-2.118  c0.34-0.066,0.659-0.25,1.017-0.464c0.134-0.08,0.278-0.167,0.433-0.251c0.588-0.321,0.75-0.735,0.777-1.045  c0.038-0.049,0.075-0.097,0.112-0.146c0.038-0.051,0.075-0.099,0.112-0.149c0.045-0.06,0.089-0.118,0.132-0.176  c0.043-0.057,0.084-0.11,0.126-0.164c0.022-0.029,0.044-0.058,0.066-0.085c0.05-0.063,0.099-0.122,0.148-0.179  c0.01-0.011,0.02-0.025,0.03-0.036c0.057-0.064,0.112-0.121,0.166-0.172c0.015-0.014,0.03-0.025,0.045-0.038  c0.039-0.033,0.077-0.064,0.115-0.088c0.019-0.012,0.037-0.021,0.056-0.031c0.033-0.018,0.067-0.031,0.099-0.041  c0.019-0.005,0.038-0.009,0.057-0.012c0.023-0.003,0.046,0.002,0.07,0.004c0.045,0.005,0.089,0.022,0.132,0.048  c0.018,0.011,0.037,0.02,0.055,0.036c0.059,0.051,0.118,0.117,0.175,0.217c0.056,0.099,0.122,0.18,0.193,0.252  c0.022,0.022,0.046,0.04,0.069,0.06c0.053,0.046,0.109,0.086,0.169,0.12c0.027,0.016,0.055,0.031,0.083,0.044  c0.068,0.031,0.139,0.055,0.213,0.073c0.022,0.005,0.042,0.014,0.064,0.018c0.097,0.019,0.199,0.028,0.305,0.029  c0.005,0,0.01,0.002,0.016,0.002c0.019,0,0.039-0.004,0.058-0.005c0.09-0.002,0.182-0.01,0.277-0.023  c0.036-0.005,0.072-0.01,0.108-0.017c0.098-0.017,0.197-0.039,0.298-0.065c0.023-0.006,0.046-0.011,0.07-0.017  c0.125-0.034,0.251-0.075,0.378-0.12c0.033-0.012,0.065-0.024,0.098-0.036c0.099-0.036,0.197-0.075,0.296-0.115  c0.039-0.016,0.077-0.032,0.116-0.048c0.111-0.047,0.222-0.096,0.332-0.147c0.016-0.007,0.032-0.014,0.047-0.021  c0.129-0.06,0.257-0.121,0.382-0.182c0.04-0.019,0.078-0.038,0.118-0.058c0.095-0.047,0.189-0.093,0.28-0.138  c0.136-0.068,0.269-0.133,0.394-0.194c0.116-0.056,0.201-0.138,0.274-0.231c0.019-0.024,0.035-0.047,0.051-0.073  c0.058-0.092,0.103-0.193,0.128-0.305c0.002-0.008,0.006-0.015,0.008-0.023c0.025-0.121,0.028-0.252,0.021-0.385  c-0.002-0.034-0.005-0.068-0.009-0.102c-0.013-0.12-0.035-0.239-0.069-0.358c-0.005-0.016-0.007-0.033-0.012-0.049  c-0.041-0.132-0.096-0.259-0.158-0.38c-0.016-0.031-0.032-0.058-0.049-0.088c-0.058-0.101-0.122-0.195-0.193-0.278  c-0.013-0.016-0.025-0.034-0.038-0.049c-0.083-0.091-0.173-0.163-0.268-0.22c-0.023-0.014-0.047-0.023-0.07-0.035  c-0.083-0.04-0.168-0.064-0.255-0.07c-0.015-0.001-0.028-0.012-0.043-0.012c-0.006,0-0.013,0.004-0.02,0.004  c-0.046,0.001-0.092,0.017-0.138,0.029c-0.036,0.01-0.071,0.013-0.107,0.03c-0.049,0.022-0.097,0.062-0.145,0.098  c-0.033,0.025-0.067,0.041-0.1,0.073c-0.054,0.051-0.106,0.125-0.158,0.195c-0.027,0.036-0.055,0.062-0.081,0.104  c-0.078,0.123-0.154,0.268-0.227,0.442c-0.071,0.169-0.134,0.322-0.191,0.461c-0.055,0.134-0.104,0.254-0.149,0.362  c-0.017,0.042-0.031,0.073-0.047,0.111c-0.026,0.063-0.053,0.128-0.076,0.182c-0.016,0.038-0.03,0.067-0.045,0.1  c-0.02,0.044-0.04,0.09-0.057,0.126c-0.014,0.028-0.026,0.048-0.038,0.072c-0.016,0.031-0.033,0.064-0.048,0.089  c-0.012,0.02-0.024,0.034-0.036,0.05c-0.014,0.02-0.029,0.041-0.043,0.055c-0.012,0.012-0.024,0.019-0.037,0.028  c-0.014,0.01-0.028,0.022-0.042,0.028c-0.013,0.005-0.027,0.006-0.04,0.009c-0.015,0.003-0.03,0.006-0.046,0.005  c-0.017-0.001-0.036-0.005-0.055-0.01c-0.016-0.004-0.031-0.006-0.048-0.011c-0.022-0.007-0.048-0.018-0.073-0.028  c-0.018-0.008-0.035-0.014-0.055-0.023c-0.043-0.019-0.088-0.04-0.14-0.064c-0.032-0.015-0.068-0.03-0.104-0.046  c-0.032-0.014-0.062-0.027-0.097-0.042c-0.041-0.017-0.09-0.034-0.136-0.052c-0.035-0.013-0.067-0.026-0.106-0.04  c-0.053-0.018-0.115-0.035-0.174-0.053c-0.041-0.012-0.077-0.025-0.122-0.036c-0.071-0.019-0.153-0.035-0.233-0.052  c-0.043-0.009-0.08-0.019-0.125-0.027c-0.13-0.024-0.272-0.045-0.427-0.061c-0.305-0.033-0.567-0.125-0.78-0.263  s-0.377-0.32-0.487-0.533c-0.274-0.532-0.21-1.251,0.276-1.924c0.194-0.269,0.456-0.531,0.79-0.77  c0.836-0.598,2.127-1.054,3.954-1.136c0.476-0.021,0.915-0.029,1.336-0.031c0.15-0.001,0.297-0.001,0.44,0.001  c0.126,0.001,0.251,0.003,0.372,0.005c0.167,0.004,0.326,0.01,0.483,0.017c0.11,0.005,0.223,0.009,0.328,0.015  c0.157,0.009,0.305,0.02,0.452,0.031c0.092,0.007,0.189,0.013,0.277,0.022c0.154,0.014,0.297,0.031,0.439,0.047  c0.009,0.001,0.018,0.002,0.027,0.003c11.379,5.74,19.633,16.792,21.483,29.881c-0.002,0.01-0.004,0.022-0.006,0.032  C89.284,44.487,89.277,44.52,89.269,44.552z M77.631,59.716c-0.003,0.076-0.008,0.156-0.014,0.235  c-0.005,0.068-0.009,0.136-0.015,0.207c-0.007,0.083-0.017,0.169-0.026,0.255c-0.008,0.072-0.016,0.144-0.025,0.218  c-0.011,0.089-0.025,0.18-0.038,0.27c-0.011,0.073-0.021,0.146-0.033,0.219c-0.015,0.093-0.032,0.185-0.049,0.278  c-0.013,0.074-0.026,0.148-0.041,0.221c-0.018,0.092-0.038,0.184-0.058,0.275c-0.016,0.073-0.031,0.146-0.048,0.218  c-0.021,0.09-0.044,0.178-0.066,0.266c-0.018,0.071-0.035,0.143-0.054,0.212c-0.024,0.087-0.049,0.169-0.074,0.252  c-0.02,0.065-0.038,0.133-0.059,0.196c-0.027,0.085-0.056,0.163-0.085,0.243c-0.02,0.055-0.038,0.113-0.058,0.165  c-0.033,0.085-0.067,0.161-0.101,0.238c-0.017,0.039-0.034,0.082-0.051,0.119c-0.052,0.109-0.105,0.208-0.158,0.294  c-0.102,0.163-0.23,0.32-0.371,0.465c-0.006,0.006-0.011,0.013-0.017,0.019c-0.137,0.139-0.29,0.263-0.446,0.371  c-0.012,0.009-0.024,0.018-0.037,0.027c-0.154,0.103-0.312,0.185-0.468,0.246c-0.017,0.007-0.033,0.015-0.05,0.021  c-0.152,0.056-0.3,0.084-0.439,0.089c-0.022,0.001-0.046,0.004-0.067,0.003c-0.042-0.001-0.082-0.009-0.122-0.017  c-0.036-0.006-0.072-0.011-0.105-0.022c-0.038-0.013-0.072-0.034-0.107-0.053c-0.03-0.017-0.062-0.031-0.089-0.053  c-0.032-0.025-0.058-0.06-0.086-0.093c-0.024-0.028-0.05-0.053-0.07-0.087c-0.024-0.04-0.041-0.09-0.06-0.138  c-0.016-0.04-0.035-0.076-0.047-0.122c-0.015-0.056-0.021-0.125-0.03-0.191c-0.007-0.052-0.018-0.098-0.02-0.155  c-0.004-0.076,0.003-0.167,0.007-0.254c0.003-0.062,0.001-0.117,0.008-0.185c0.011-0.104,0.035-0.225,0.056-0.343  c0.012-0.067,0.018-0.124,0.033-0.195c0.043-0.197,0.099-0.41,0.172-0.644c1.135-3.666,2.269-4.19,2.968-4.452  c0.046-0.017,0.086-0.013,0.125-0.007c0.023,0.004,0.044,0.013,0.063,0.024c0.022,0.013,0.044,0.029,0.063,0.051  c0.017,0.019,0.033,0.042,0.048,0.068c0.017,0.03,0.032,0.063,0.046,0.1c0.012,0.033,0.023,0.068,0.033,0.107  c0.011,0.044,0.021,0.093,0.029,0.144c0.007,0.044,0.014,0.09,0.019,0.139c0.006,0.057,0.011,0.119,0.014,0.182  c0.003,0.054,0.006,0.109,0.007,0.167c0.001,0.068,0.001,0.139,0,0.212C77.635,59.589,77.634,59.651,77.631,59.716z M49.162,14.866  c-0.083,0.049-0.163,0.099-0.244,0.149c-0.19,0.117-0.376,0.235-0.556,0.355c-0.079,0.052-0.158,0.104-0.235,0.157  c-0.206,0.141-0.405,0.283-0.599,0.426c-0.035,0.026-0.071,0.051-0.105,0.076c-0.227,0.17-0.444,0.339-0.654,0.508  c-0.062,0.05-0.12,0.098-0.181,0.147c-0.151,0.124-0.299,0.245-0.442,0.366c-0.065,0.055-0.128,0.108-0.191,0.162  c-0.146,0.125-0.287,0.246-0.424,0.366c-0.203,0.177-0.397,0.346-0.581,0.507c-0.037,0.032-0.07,0.061-0.106,0.092  c-0.124,0.107-0.242,0.209-0.358,0.306c-0.049,0.041-0.097,0.081-0.145,0.12c-0.106,0.087-0.207,0.167-0.306,0.243  c-0.039,0.03-0.08,0.063-0.118,0.091c-0.131,0.097-0.257,0.184-0.376,0.258c-0.018,0.011-0.036,0.019-0.054,0.029  c-0.1,0.059-0.196,0.107-0.288,0.147c-0.034,0.015-0.068,0.026-0.101,0.037c-0.078,0.027-0.152,0.046-0.225,0.057  c-0.03,0.005-0.061,0.011-0.091,0.013c-0.062,0.003-0.12-0.009-0.179-0.019c-0.042-0.008-0.086-0.01-0.127-0.025  c-0.057-0.021-0.111-0.06-0.165-0.097c-0.036-0.025-0.074-0.041-0.109-0.073c-0.058-0.053-0.113-0.129-0.169-0.203  c-0.027-0.037-0.056-0.062-0.083-0.105c-0.08-0.128-0.157-0.279-0.232-0.459c-1.222-2.968-2.936-5.288-1.016-5.462  s2.618-0.591,3.492-0.786c0.281-0.063,0.582-0.118,0.894-0.167c0.026-0.004,0.051-0.008,0.077-0.012  c0.311-0.047,0.632-0.089,0.96-0.122c0.003,0,0.007-0.001,0.01-0.001c0.331-0.033,0.667-0.058,1.002-0.076  c0.026-0.001,0.053-0.003,0.079-0.004c0.329-0.016,0.656-0.025,0.976-0.026c0.01,0,0.02,0,0.029,0c0.167,0,0.33,0.003,0.492,0.008  c0.045,0.001,0.089,0.003,0.133,0.005c0.122,0.005,0.241,0.01,0.358,0.018c0.045,0.003,0.091,0.005,0.135,0.008  c0.151,0.011,0.298,0.024,0.44,0.039c0.022,0.002,0.042,0.005,0.063,0.008c0.12,0.014,0.237,0.03,0.349,0.048  c0.041,0.006,0.081,0.013,0.121,0.02c0.1,0.017,0.195,0.036,0.287,0.057c0.028,0.006,0.058,0.012,0.086,0.019  c0.112,0.027,0.217,0.057,0.315,0.089c0.026,0.009,0.049,0.018,0.074,0.027c0.072,0.026,0.139,0.053,0.201,0.083  c0.026,0.012,0.051,0.024,0.075,0.036c0.069,0.036,0.131,0.074,0.184,0.115c0.006,0.005,0.014,0.009,0.02,0.013  c0.056,0.045,0.099,0.094,0.134,0.145c0.01,0.015,0.018,0.031,0.027,0.046c0.022,0.04,0.038,0.082,0.046,0.126  c0.003,0.016,0.008,0.032,0.01,0.048c0.005,0.059,0,0.12-0.02,0.185c-0.004,0.012-0.011,0.024-0.016,0.036  c-0.021,0.055-0.051,0.113-0.091,0.172c-0.014,0.022-0.03,0.044-0.047,0.066c-0.046,0.06-0.101,0.122-0.167,0.187  c-0.016,0.016-0.028,0.03-0.045,0.046c-0.086,0.08-0.188,0.163-0.304,0.249c-0.029,0.022-0.064,0.044-0.095,0.067  c-0.097,0.068-0.205,0.139-0.322,0.211c-0.044,0.027-0.087,0.054-0.134,0.082c-0.162,0.096-0.334,0.193-0.531,0.296  C49.71,14.547,49.433,14.705,49.162,14.866z M52.177,15.675c0.024,0.006,0.045,0.014,0.064,0.024  c0.031,0.015,0.054,0.037,0.074,0.063c0.012,0.016,0.026,0.031,0.034,0.051c0.014,0.035,0.019,0.083,0.02,0.135  c0.001,0.025,0.006,0.044,0.004,0.073c-0.007,0.088-0.025,0.192-0.061,0.324c-0.029,0.109-0.083,0.211-0.146,0.31  c-0.018,0.028-0.038,0.055-0.059,0.082c-0.055,0.074-0.117,0.144-0.186,0.21c-0.021,0.02-0.04,0.042-0.063,0.061  c-0.092,0.08-0.192,0.154-0.298,0.219c-0.022,0.013-0.044,0.024-0.066,0.036c-0.088,0.05-0.179,0.095-0.271,0.133  c-0.033,0.013-0.065,0.026-0.097,0.038c-0.098,0.036-0.195,0.065-0.29,0.085c-0.015,0.003-0.031,0.009-0.047,0.012  c-0.104,0.019-0.201,0.024-0.293,0.021c-0.075-0.002-0.139-0.019-0.203-0.037c-0.032-0.009-0.071-0.011-0.099-0.025  c-0.084-0.04-0.153-0.097-0.194-0.178c-0.192-0.382-0.274-0.878-0.004-1.211c0.162-0.199,0.451-0.34,0.919-0.36  c0.002,0,0.003,0,0.005,0c0.231-0.01,0.43-0.031,0.609-0.05c0.172-0.018,0.314-0.032,0.435-0.034  c0.03-0.001,0.056,0.001,0.084,0.003C52.096,15.66,52.139,15.666,52.177,15.675z M52.748,21.232c-0.01-0.124-0.003-0.227,0.01-0.32  c0.004-0.028,0.011-0.053,0.017-0.078c0.015-0.062,0.034-0.118,0.058-0.167c0.009-0.019,0.018-0.04,0.029-0.057  c0.035-0.057,0.075-0.107,0.121-0.144c0.001-0.001,0.002-0.002,0.003-0.003c0.047-0.039,0.099-0.066,0.151-0.088  c0.016-0.007,0.032-0.012,0.049-0.018c0.038-0.013,0.075-0.023,0.112-0.03c0.015-0.003,0.03-0.006,0.044-0.008  c0.046-0.006,0.091-0.01,0.129-0.01c0.001,0,0.002,0,0.003,0c0.023,0,0.038,0.002,0.057,0.003c0.052,0.003,0.092,0.008,0.092,0.008  c0.12,0.017,0.231,0.053,0.331,0.104c0.501,0.255,0.747,0.881,0.651,1.319c-0.038,0.175-0.131,0.321-0.284,0.4  c-0.083,0.043-0.171,0.075-0.261,0.099c-0.029,0.008-0.059,0.01-0.088,0.016c-0.061,0.012-0.123,0.021-0.185,0.023  c-0.029,0.001-0.057-0.003-0.086-0.004c-0.085-0.004-0.168-0.018-0.248-0.042c-0.025-0.007-0.05-0.013-0.074-0.022  c-0.098-0.038-0.19-0.092-0.271-0.165c-0.015-0.014-0.027-0.033-0.042-0.048c-0.065-0.067-0.121-0.148-0.168-0.241  c-0.016-0.031-0.031-0.063-0.045-0.097C52.802,21.538,52.762,21.4,52.748,21.232L52.748,21.232L52.748,21.232z M55.454,18.534  c0.038-0.024,0.073-0.035,0.104-0.036c0.003,0,0.005,0.002,0.008,0.003c0.047,0.002,0.086,0.032,0.119,0.082  c0.003,0.005,0.008,0.008,0.011,0.013c0.031,0.053,0.056,0.127,0.078,0.213c0.004,0.015,0.008,0.029,0.011,0.044  c0.019,0.088,0.035,0.186,0.049,0.293c0.003,0.023,0.006,0.045,0.008,0.068c0.013,0.109,0.024,0.221,0.035,0.335  c0.024,0.252,0.049,0.501,0.089,0.696c0.003,0.013,0.005,0.028,0.008,0.04c0.019,0.085,0.044,0.154,0.072,0.209  c0.005,0.01,0.01,0.019,0.016,0.028c0.03,0.047,0.066,0.075,0.11,0.079c0.003,0,0.005,0.006,0.008,0.006  c0.019,0,0.039-0.004,0.06-0.014c0.072-0.031,0.161-0.043,0.254-0.045c0.067-0.001,0.137,0.004,0.208,0.016  c0.011,0.002,0.022,0.001,0.033,0.003c0.084,0.016,0.169,0.041,0.249,0.072c0.024,0.009,0.044,0.021,0.067,0.032  c0.054,0.024,0.106,0.05,0.153,0.08c0.024,0.016,0.044,0.033,0.065,0.05c0.037,0.03,0.07,0.061,0.097,0.094  c0.016,0.02,0.029,0.041,0.041,0.062c0.019,0.034,0.029,0.07,0.034,0.107c0.003,0.022,0.007,0.045,0.004,0.067  c-0.005,0.04-0.026,0.082-0.052,0.123c-0.013,0.021-0.018,0.041-0.037,0.061c-0.055,0.062-0.131,0.125-0.244,0.186  c-0.143,0.078-0.276,0.157-0.404,0.233c-0.101,0.06-0.193,0.115-0.282,0.166c-0.04,0.023-0.077,0.042-0.115,0.063  c-0.064,0.035-0.125,0.065-0.182,0.091c-0.036,0.016-0.069,0.029-0.102,0.041c-0.052,0.018-0.099,0.028-0.145,0.034  c-0.031,0.004-0.062,0.01-0.09,0.007c-0.02-0.002-0.039-0.008-0.057-0.014c-0.033-0.01-0.062-0.027-0.09-0.051  c-0.016-0.013-0.031-0.028-0.045-0.046c-0.025-0.033-0.047-0.079-0.066-0.13c-0.009-0.024-0.02-0.043-0.028-0.072  c-0.024-0.087-0.042-0.19-0.052-0.32c-0.002-0.099,0.007-0.196-0.011-0.299c-0.026-0.149-0.074-0.299-0.133-0.448  C55.071,19.865,54.703,19.012,55.454,18.534z M33.793,13.776c0.023,0,0.046,0.001,0.07,0.001c0.071,0.002,0.146,0.009,0.225,0.021  c0.031,0.004,0.061,0.008,0.094,0.014c0.11,0.019,0.225,0.044,0.349,0.077c0.005,0.001,0.011,0.004,0.017,0.005  c0.121,0.033,0.249,0.072,0.381,0.115c0.042,0.014,0.085,0.028,0.127,0.043c0.105,0.036,0.213,0.074,0.324,0.114  c0.041,0.015,0.082,0.03,0.124,0.045c0.148,0.055,0.3,0.113,0.457,0.174c0.002,0.001,0.005,0.002,0.007,0.003  c0.189,0.074,0.385,0.151,0.584,0.23c0.127,0.05,0.255,0.101,0.386,0.152c0.057,0.022,0.113,0.044,0.17,0.066  c0.179,0.069,0.359,0.138,0.541,0.206c1.473,0.546,1.381,0.995,0.825,1.401c-0.278,0.203-0.671,0.395-1.043,0.582  c-0.074,0.037-0.148,0.075-0.219,0.112c-0.085,0.044-0.199,0.1-0.32,0.157c-0.034,0.016-0.072,0.032-0.109,0.049  c-0.125,0.055-0.265,0.111-0.418,0.163c-0.024,0.008-0.045,0.017-0.069,0.025c-0.172,0.056-0.363,0.104-0.563,0.144  c-0.052,0.01-0.106,0.018-0.16,0.026c-0.177,0.028-0.364,0.045-0.558,0.05c-0.05,0.001-0.097,0.007-0.148,0.006  c-0.125-0.001-0.257-0.016-0.389-0.03c-0.07-0.007-0.138-0.008-0.209-0.02c-0.206-0.033-0.418-0.081-0.635-0.152  c-1.659-0.541,0.96-0.419,1.659-1.364s-2.27-0.452-2.182-1.796c0.007-0.101,0.028-0.185,0.057-0.259  c0.008-0.022,0.02-0.041,0.03-0.061c0.009-0.017,0.022-0.029,0.032-0.044C33.414,13.945,33.604,13.861,33.793,13.776z   M24.365,38.482c0.018,0.002,0.037,0.005,0.056,0.008c0.125,0.017,0.258,0.039,0.397,0.066c0.018,0.003,0.036,0.007,0.054,0.011  c0.143,0.029,0.29,0.06,0.434,0.095c0.012,0.003,0.024,0.006,0.037,0.009c0.15,0.037,0.298,0.075,0.434,0.114  c0,0,0.889,0.134,1.307,0.511l-0.065,0.068c-0.232,0.255-0.292,0.598-0.279,1.041c-0.005-0.001-0.007,0-0.012-0.002  c-0.014-0.005-0.029-0.011-0.044-0.017c-0.071-0.027-0.149-0.063-0.247-0.116c-0.004-0.002-0.009-0.005-0.014-0.008  c-0.104-0.056-0.227-0.126-0.37-0.209c-0.148-0.085-0.317-0.183-0.516-0.297c-0.038-0.022-0.075-0.042-0.114-0.065  c-0.205-0.116-0.429-0.241-0.693-0.384c-0.146-0.079-0.273-0.15-0.384-0.216c-0.039-0.023-0.066-0.042-0.1-0.063  c-0.065-0.041-0.133-0.082-0.185-0.117c-0.032-0.022-0.053-0.04-0.081-0.06c-0.04-0.03-0.082-0.06-0.112-0.086  c-0.021-0.019-0.034-0.034-0.051-0.051c-0.022-0.022-0.045-0.045-0.059-0.064c-0.011-0.015-0.014-0.027-0.02-0.04  c-0.007-0.016-0.015-0.032-0.015-0.046c0-0.011,0.005-0.02,0.01-0.029c0.005-0.011,0.011-0.022,0.022-0.03  c0.01-0.007,0.023-0.013,0.037-0.018c0.016-0.006,0.032-0.013,0.053-0.017c0.018-0.004,0.039-0.006,0.06-0.009  c0.025-0.003,0.05-0.005,0.079-0.005c0.019,0,0.04,0,0.06,0C24.137,38.459,24.245,38.468,24.365,38.482z M28.775,41.338  c-0.579,0-1.124-0.196-1.166-0.633c-0.01-0.102-0.016-0.188-0.019-0.266c-0.001-0.025-0.001-0.045-0.002-0.067  c-0.001-0.048-0.002-0.093-0.001-0.131c0-0.021,0.001-0.04,0.002-0.058c0.002-0.032,0.004-0.061,0.007-0.085  c0.002-0.014,0.003-0.028,0.005-0.039c0.004-0.023,0.009-0.041,0.014-0.057c0.002-0.007,0.004-0.015,0.006-0.021  c0.015-0.039,0.032-0.055,0.045-0.061c0.003-0.001,0.005-0.001,0.007-0.002c0.004-0.001,0.008-0.002,0.01-0.001  c0.004,0.001,0.009,0.002,0.009,0.002c0.155-0.041,0.313-0.068,0.469-0.086c0.052-0.006,0.102-0.006,0.153-0.01  c0.106-0.007,0.211-0.014,0.314-0.011c0.046,0.001,0.091,0.005,0.136,0.007c0.101,0.006,0.198,0.016,0.293,0.031  c0.044,0.007,0.088,0.013,0.13,0.022c0.101,0.02,0.197,0.045,0.287,0.075c0.025,0.008,0.053,0.014,0.078,0.023  c0.11,0.04,0.209,0.087,0.295,0.139c0.021,0.013,0.036,0.028,0.056,0.041c0.06,0.042,0.112,0.087,0.155,0.134  c0.018,0.021,0.033,0.042,0.048,0.064c0.031,0.047,0.052,0.096,0.064,0.147c0.005,0.022,0.014,0.044,0.015,0.067  c0.005,0.074-0.005,0.15-0.045,0.23c-0.044,0.087-0.115,0.165-0.206,0.233C29.662,41.228,29.209,41.338,28.775,41.338z   M28.992,16.341c0.044-0.01,0.089-0.022,0.133-0.031c0.033-0.007,0.066-0.012,0.1-0.018c0.096-0.018,0.192-0.035,0.287-0.049  c0.046-0.007,0.091-0.011,0.137-0.016c0.082-0.01,0.163-0.017,0.242-0.022c0.047-0.003,0.094-0.005,0.14-0.006  c0.06-0.002,0.118,0,0.177,0.001c0.105,0.002,0.205,0.011,0.303,0.024c0.043,0.006,0.086,0.01,0.127,0.018  c0.133,0.026,0.261,0.06,0.376,0.111c1.571,0.698-4.714,2.706-4.19,3.841c0.038,0.081,0.086,0.166,0.139,0.252  c0.017,0.027,0.036,0.053,0.054,0.08c0.041,0.061,0.085,0.122,0.134,0.183c0.024,0.03,0.047,0.059,0.073,0.089  c0.052,0.062,0.109,0.122,0.167,0.183c0.025,0.025,0.048,0.05,0.073,0.075c0.086,0.083,0.177,0.163,0.274,0.238  c0.01,0.008,0.022,0.015,0.033,0.023c0.087,0.066,0.179,0.127,0.274,0.185c0.034,0.02,0.068,0.038,0.103,0.057  c0.077,0.042,0.155,0.08,0.235,0.115c0.039,0.017,0.078,0.033,0.118,0.048c0.086,0.032,0.174,0.057,0.264,0.079  c0.034,0.008,0.067,0.019,0.101,0.026c0.123,0.024,0.249,0.038,0.377,0.039c0.004,0,0.008,0.001,0.011,0.001  c0.012,0,0.024-0.004,0.035-0.005c0.132-0.002,0.266-0.021,0.401-0.053c0.038-0.009,0.076-0.018,0.114-0.029  c0.151-0.045,0.302-0.103,0.453-0.189c0.009-0.005,0.018-0.013,0.027-0.018c0.142-0.084,0.283-0.194,0.424-0.319  c0.038-0.034,0.076-0.07,0.115-0.108c0.15-0.148,0.298-0.312,0.444-0.514c0.194-0.27,0.379-0.511,0.561-0.74  c0.043-0.053,0.085-0.106,0.127-0.157c0.179-0.217,0.354-0.418,0.525-0.591c0.021-0.021,0.041-0.038,0.061-0.058  c0.154-0.152,0.305-0.283,0.454-0.398c0.036-0.028,0.072-0.057,0.107-0.082c0.125-0.089,0.248-0.153,0.372-0.214  c0.469,0.142,0.95,0.221,1.435,0.221c0.136,0,0.266-0.009,0.395-0.019c0.167,0.121,0.336,0.259,0.511,0.436  c1.571,1.6,4.015,3.695-1.309,6.488c-0.998,0.524-1.923,1.103-2.767,1.704c-1.968,1.403-3.495,2.929-4.485,4.16  c-0.849,1.055-1.303,1.894-1.303,2.254c0,0.058,0.002,0.127,0.005,0.205c0.001,0.026,0.003,0.058,0.005,0.087  c0.003,0.055,0.006,0.109,0.009,0.171c0.003,0.041,0.006,0.086,0.008,0.13c0.004,0.06,0.008,0.12,0.012,0.184  c0.006,0.09,0.013,0.186,0.02,0.283c0.003,0.049,0.007,0.099,0.01,0.149c0.005,0.073,0.01,0.147,0.015,0.222  c0.004,0.055,0.007,0.109,0.01,0.165c0.005,0.072,0.009,0.145,0.013,0.218c0.003,0.052,0.006,0.103,0.008,0.155  c0.004,0.076,0.007,0.151,0.01,0.227c0.002,0.051,0.004,0.103,0.006,0.154c0.003,0.077,0.004,0.153,0.006,0.229  c0.001,0.045,0.002,0.091,0.003,0.135c0.001,0.103,0,0.203-0.002,0.3c0,0.014,0,0.03,0,0.044c-0.003,0.109-0.008,0.213-0.015,0.311  c-0.002,0.029-0.006,0.054-0.009,0.082c-0.006,0.066-0.013,0.131-0.022,0.189c-0.005,0.031-0.012,0.058-0.017,0.087  c-0.01,0.048-0.02,0.094-0.032,0.135c-0.008,0.026-0.017,0.048-0.026,0.071c-0.013,0.034-0.027,0.065-0.043,0.091  c-0.011,0.018-0.024,0.033-0.036,0.047c-0.018,0.019-0.037,0.035-0.057,0.045c-0.015,0.008-0.03,0.014-0.047,0.017  c-0.025,0.005-0.052,0.003-0.081-0.005c-0.013-0.003-0.026-0.005-0.04-0.011c-0.046-0.02-0.094-0.05-0.149-0.1  c-0.086-0.078-0.156-0.178-0.221-0.287c-0.014-0.024-0.029-0.048-0.043-0.074c-0.059-0.11-0.113-0.228-0.162-0.355  c-0.012-0.03-0.023-0.061-0.034-0.092c-0.046-0.125-0.092-0.253-0.138-0.384c-0.049-0.14-0.101-0.281-0.158-0.418  c-0.011-0.028-0.024-0.054-0.036-0.082c-0.054-0.124-0.114-0.243-0.183-0.355c-0.01-0.016-0.018-0.033-0.028-0.049  c-0.076-0.117-0.165-0.221-0.266-0.315c-0.023-0.022-0.048-0.042-0.073-0.062c-0.11-0.089-0.231-0.168-0.377-0.221  c-0.008-0.003-0.017-0.003-0.025-0.006c-0.14-0.048-0.304-0.071-0.484-0.078c-0.025-0.001-0.042-0.011-0.068-0.011  c-0.029,0-0.065,0.006-0.095,0.007c-0.052,0.002-0.106,0.007-0.16,0.012c-0.091,0.009-0.188,0.024-0.288,0.044  c-0.06,0.012-0.12,0.023-0.183,0.038c-0.114,0.028-0.237,0.065-0.363,0.106c-0.06,0.02-0.117,0.035-0.181,0.058  c-0.194,0.07-0.399,0.151-0.621,0.252c-0.001,0.001-0.002,0.001-0.003,0.001c-0.003,0.001-0.005,0.003-0.009,0.005  c-0.232,0.106-0.447,0.223-0.648,0.35c-0.069,0.044-0.127,0.094-0.193,0.14c-0.128,0.089-0.257,0.177-0.371,0.274  c-0.071,0.06-0.131,0.125-0.197,0.187c-0.096,0.09-0.194,0.179-0.28,0.274c-0.063,0.07-0.117,0.143-0.175,0.215  c-0.076,0.093-0.153,0.185-0.22,0.282c-0.054,0.077-0.099,0.156-0.147,0.234c-0.059,0.095-0.119,0.189-0.171,0.286  c-0.043,0.081-0.08,0.163-0.118,0.245c-0.045,0.096-0.091,0.191-0.129,0.287c-0.033,0.083-0.06,0.165-0.089,0.248  c-0.033,0.095-0.066,0.19-0.093,0.285c-0.023,0.083-0.042,0.163-0.061,0.245c-0.022,0.093-0.044,0.186-0.06,0.278  c-0.014,0.08-0.025,0.157-0.036,0.235c-0.012,0.089-0.023,0.177-0.031,0.263c-0.006,0.076-0.01,0.148-0.013,0.221  c-0.003,0.083-0.005,0.164-0.004,0.243c0.001,0.069,0.004,0.135,0.008,0.201c0.005,0.075,0.01,0.146,0.019,0.216  c0.007,0.062,0.016,0.12,0.026,0.177c0.011,0.064,0.024,0.125,0.039,0.183c0.013,0.052,0.027,0.1,0.042,0.146  c0.017,0.052,0.036,0.099,0.056,0.144c0.018,0.04,0.036,0.077,0.055,0.111c0.022,0.038,0.046,0.07,0.071,0.099  c0.022,0.026,0.043,0.051,0.066,0.07c0.027,0.022,0.054,0.035,0.083,0.047c0.025,0.011,0.049,0.021,0.074,0.024  c0.01,0.001,0.018,0.009,0.028,0.009c0.039,0,0.079-0.009,0.12-0.027c0.096-0.044,0.199-0.107,0.304-0.178  c0.015-0.01,0.03-0.02,0.046-0.031c0.101-0.071,0.206-0.151,0.312-0.238c0.021-0.017,0.043-0.035,0.064-0.053  c0.107-0.089,0.215-0.182,0.325-0.278c0.09-0.079,0.179-0.158,0.269-0.238c0.039-0.035,0.079-0.07,0.118-0.104  c0.11-0.096,0.218-0.188,0.325-0.277c0.02-0.016,0.04-0.033,0.059-0.049c0.105-0.085,0.208-0.162,0.307-0.23  c0.019-0.013,0.037-0.025,0.056-0.037c0.1-0.066,0.197-0.122,0.289-0.162c0.011-0.005,0.022-0.007,0.033-0.012  c0.09-0.036,0.175-0.058,0.254-0.06c0.006,0,0.014-0.003,0.02-0.003c0.034,0,0.066,0.01,0.097,0.018  c0.016,0.004,0.034,0.004,0.05,0.01c0.046,0.019,0.089,0.047,0.128,0.086c0.076,0.076,0.119,0.176,0.136,0.292  c0.009,0.058,0.011,0.12,0.009,0.186c-0.008,0.196-0.061,0.423-0.129,0.656c-0.136,0.467-0.33,0.963-0.334,1.309  c-0.001,0.115,0.018,0.214,0.069,0.289c0.05,0.075,0.131,0.127,0.251,0.149c0.96,0.175,1.309,1.571,1.397,3.23  c0.007,0.125,0.032,0.228,0.067,0.32c0.01,0.028,0.024,0.051,0.036,0.076c0.031,0.062,0.069,0.115,0.113,0.161  c0.018,0.018,0.034,0.037,0.053,0.053c0.133,0.106,0.308,0.157,0.514,0.162c0.011,0,0.02,0.004,0.031,0.004  c0.02,0,0.044-0.006,0.064-0.007c0.08-0.003,0.162-0.012,0.249-0.027c0.035-0.006,0.068-0.011,0.104-0.018  c0.24-0.052,0.501-0.142,0.771-0.262c0.041-0.018,0.081-0.038,0.122-0.057c0.1-0.047,0.201-0.098,0.302-0.153  c0.041-0.022,0.082-0.044,0.123-0.067c0.274-0.155,0.546-0.332,0.806-0.523c0.039-0.029,0.077-0.058,0.115-0.088  c0.094-0.072,0.185-0.145,0.274-0.219c0.036-0.031,0.073-0.06,0.108-0.091c0.118-0.103,0.232-0.206,0.337-0.311  c0.092-0.092,0.211-0.157,0.348-0.203c0.046-0.015,0.103-0.017,0.153-0.028c0.1-0.021,0.2-0.041,0.316-0.043  c0.113-0.002,0.234,0.006,0.36,0.02c0.043,0.005,0.081,0.004,0.126,0.01c0.178,0.026,0.367,0.066,0.564,0.119  c0.047,0.013,0.098,0.031,0.146,0.045c0.154,0.045,0.312,0.094,0.475,0.152c0.077,0.028,0.157,0.06,0.235,0.091  c0.14,0.054,0.281,0.111,0.425,0.173c0.088,0.038,0.177,0.079,0.266,0.12c0.14,0.064,0.28,0.132,0.422,0.203  c0.091,0.046,0.183,0.092,0.275,0.14c0.145,0.076,0.29,0.156,0.435,0.237c0.088,0.049,0.175,0.097,0.262,0.148  c0.161,0.094,0.321,0.192,0.48,0.291c0.069,0.043,0.138,0.084,0.207,0.128c0.225,0.145,0.448,0.293,0.663,0.445  c0.035,0.024,0.067,0.05,0.102,0.074c0.18,0.128,0.356,0.258,0.525,0.389c0.07,0.054,0.135,0.108,0.203,0.163  c0.129,0.103,0.256,0.207,0.376,0.31c0.07,0.061,0.137,0.121,0.204,0.181c0.109,0.098,0.213,0.195,0.312,0.291  c0.063,0.061,0.124,0.123,0.183,0.183c0.093,0.096,0.178,0.19,0.26,0.284c0.05,0.058,0.102,0.116,0.147,0.172  c0.08,0.099,0.148,0.195,0.212,0.291c0.032,0.047,0.069,0.095,0.097,0.141c0.084,0.138,0.154,0.272,0.199,0.398  c1.222,3.417,5.693,3.03,5.686,6.159c-0.009,3.788-0.868,6.942-2.793,9.451c-1.385,1.806-2.008,5.912-4.277,7.046  c-2.27,1.135-1.52,5.151-1.265,6.105c0.019,0.07,0.042,0.145,0.069,0.223c0.01,0.028,0.022,0.059,0.032,0.087  c0.019,0.053,0.038,0.106,0.06,0.161c0.011,0.027,0.023,0.056,0.034,0.083c0.024,0.061,0.049,0.122,0.075,0.185  c0.01,0.025,0.021,0.051,0.032,0.076c0.058,0.136,0.117,0.275,0.178,0.416c0.005,0.011,0.009,0.022,0.014,0.033  c0.023,0.054,0.046,0.109,0.069,0.163c0.019,0.045,0.038,0.089,0.056,0.134c0.02,0.048,0.038,0.095,0.057,0.142  c0.019,0.048,0.038,0.096,0.057,0.143c0.017,0.045,0.033,0.09,0.049,0.134c0.017,0.046,0.034,0.092,0.049,0.137  c0.015,0.044,0.028,0.087,0.041,0.13c0.013,0.043,0.027,0.086,0.038,0.128c0.011,0.041,0.02,0.08,0.029,0.12  c0.009,0.04,0.018,0.08,0.025,0.119c0.007,0.037,0.01,0.072,0.014,0.107c0.004,0.036,0.007,0.072,0.008,0.106  c0.001,0.032-0.001,0.063-0.003,0.092c-0.002,0.032-0.006,0.063-0.012,0.091c-0.006,0.027-0.014,0.051-0.023,0.075  c-0.01,0.026-0.021,0.05-0.035,0.073c-0.013,0.021-0.028,0.039-0.045,0.056c-0.018,0.019-0.039,0.036-0.063,0.051  c-0.021,0.014-0.044,0.025-0.069,0.035c-0.028,0.011-0.06,0.02-0.093,0.026c-0.03,0.006-0.062,0.01-0.096,0.012  c-0.059,0.003-0.12,0.006-0.194-0.003c-1.484-0.175-4.064-2.461-4.937-12.063c-0.873-9.602-1.149-6.514-3.317-8.816  c-0.395-0.42-0.778-0.93-1.12-1.491c-1.024-1.685-1.673-3.833-1.15-5.405c0.349-1.047,0.96-2.575,1.255-3.884  c0.074-0.327,0.128-0.641,0.153-0.93c0.075-0.867-0.109-1.514-0.796-1.645c-0.229-0.044-0.443-0.124-0.646-0.233  c-0.405-0.217-0.765-0.547-1.108-0.92c-0.198-0.216-0.391-0.446-0.584-0.677c-0.639-0.767-1.276-1.544-2.114-1.837  c-0.873-0.306-2.008-0.567-2.979-0.971c-0.971-0.404-1.779-0.949-1.997-1.822c-0.325-1.3-1.182-4.339-1.815-5.844  C16.289,27.425,21.886,20.791,28.992,16.341z"/><text x="0" y="115" fill="#000000" font-size="5px" font-weight="bold" font-family="'Helvetica Neue', Helvetica, Arial-Unicode, Arial, Sans-serif">Created by emilegraphics</text><text x="0" y="120" fill="#000000" font-size="5px" font-weight="bold" font-family="'Helvetica Neue', Helvetica, Arial-Unicode, Arial, Sans-serif">from the Noun Project</text></svg>