<svg xmlns="http://www.w3.org/2000/svg" xmlns:xlink="http://www.w3.org/1999/xlink" version="1.1" x="0px" y="0px" viewBox="0 0 100 125" style="enable-background:new 0 0 100 100;" xml:space="preserve"><style type="text/css">
	.st0{fill:#231F20;}
</style><g><path class="st0" d="M78.9,34.2c-5.9-14-22-20.6-36.1-14.7c-14,5.9-20.6,22-14.7,36.1c5.9,14,22,20.6,36.1,14.7   C78.2,64.4,84.8,48.2,78.9,34.2z M75.5,34L66,38c-1.5-3.2-3.2-6.1-5.1-8.6c2.3-1.5,4.5-3.2,6.4-4.9C70.8,26.8,73.6,30.1,75.5,34z    M51.6,44.1l-9.1,3.8c-1.2-3.2-2-6.3-2.4-9.2c2.7-0.7,5.4-1.6,8.1-2.7L51.6,44.1z M50.9,34.9c2.7-1.2,5.2-2.5,7.6-3.9   c1.8,2.3,3.5,5.1,4.9,8.2l-9.1,3.8L50.9,34.9z M52.7,46.7l3.4,8c-2.7,1.2-5.2,2.5-7.6,3.9c-1.8-2.3-3.5-5.1-4.9-8.2L52.7,46.7z    M55.4,45.6l9.1-3.8c1.2,3.2,2,6.3,2.4,9.2c-2.7,0.7-5.4,1.6-8.1,2.7L55.4,45.6z M64.7,23c-1.7,1.5-3.6,2.9-5.7,4.2   c0,0-0.1-0.1-0.1-0.1c-2.9-3.2-6.1-5.5-9.3-6.5c-0.1,0-0.1,0-0.2,0C54.8,19.7,60.1,20.6,64.7,23z M48.9,23.4c1.6,0.5,3.5,1.5,5.3,3   c0.8,0.7,1.6,1.5,2.4,2.3c-2.1,1.3-4.4,2.4-6.8,3.5l-3.8-9.1C46.8,23,47.8,23.1,48.9,23.4z M41.4,26.5c0.5-1,1.2-1.7,1.9-2.3   l3.8,9.1c-2.4,1-4.9,1.8-7.3,2.4C39.6,32,40.2,28.7,41.4,26.5z M38.9,25c0,0.1-0.1,0.1-0.1,0.2c-1,2-1.7,4.4-1.9,7   c-0.1,1.4-0.1,2.8,0,4.3c-2.4,0.5-4.7,0.9-7,1.1C31.5,32.6,34.6,28.2,38.9,25z M29.3,40.5c2.6-0.2,5.3-0.6,8-1.1   c0.4,3.1,1.3,6.3,2.6,9.6l-9.5,4C28.8,48.9,28.5,44.6,29.3,40.5z M31.4,55.7l9.6-4c1.5,3.2,3.2,6.1,5.1,8.6   c-2.3,1.5-4.5,3.2-6.4,4.9C36.2,62.8,33.3,59.6,31.4,55.7z M42.2,66.7c1.7-1.5,3.6-2.9,5.7-4.2c0,0,0.1,0.1,0.1,0.1   c2.9,3.2,6.1,5.5,9.3,6.5c0.1,0,0.1,0,0.2,0C52.1,70,46.8,69.1,42.2,66.7z M58.1,66.3c-1.6-0.5-3.5-1.5-5.3-3   c-0.8-0.7-1.6-1.5-2.4-2.3c2.1-1.3,4.4-2.4,6.8-3.5l3.8,9.1C60.1,66.7,59.1,66.6,58.1,66.3z M65.6,63.1c-0.5,1-1.2,1.7-1.9,2.3   l-3.8-9.1c2.4-1,4.9-1.8,7.3-2.4C67.3,57.7,66.7,61,65.6,63.1z M68,64.7c0-0.1,0.1-0.1,0.1-0.2c1-2,1.7-4.4,1.9-7   c0.1-1.4,0.1-2.8,0-4.3c2.4-0.5,4.7-0.9,7-1.1C75.4,57.1,72.3,61.5,68,64.7z M77.7,49.2c-2.6,0.2-5.3,0.6-8,1.1   c-0.4-3.1-1.3-6.3-2.6-9.6l9.5-4C78.1,40.8,78.4,45.1,77.7,49.2z"/><path class="st0" d="M68,73.8c0-0.1-0.1-0.1-0.1-0.2c0-0.1-0.1-0.1-0.1-0.2c0-0.1-0.1-0.1-0.1-0.2c0-0.1-0.1-0.1-0.1-0.2   c0,0-0.1-0.1-0.2-0.1c-0.1,0-0.1-0.1-0.2-0.1c-0.1,0-0.1-0.1-0.2-0.1c-0.1,0-0.1-0.1-0.2-0.1c-0.1,0-0.1,0-0.2-0.1   c-0.1,0-0.1,0-0.2-0.1c-0.1,0-0.1,0-0.2,0c-0.1,0-0.1,0-0.2,0c-0.1,0-0.1,0-0.2,0c-0.1,0-0.1,0-0.2,0c-0.1,0-0.1,0-0.2,0.1   c-0.1,0-0.1,0-0.2,0.1c-3.8,1.6-7.8,2.4-11.7,2.4c-5.9,0-11.7-1.7-16.5-4.9C32,66.9,28,62.3,25.6,56.5c-1.6-3.8-2.4-7.8-2.4-11.7   c0-5.9,1.7-11.7,4.9-16.5c3.2-4.9,7.8-8.9,13.6-11.3c1.1-0.4,1.6-1.6,1.2-2.7l-1-2.8c-0.4-1.1-1.6-1.7-2.7-1.3   c-1.1,0.4-1.7,1.6-1.3,2.7l0.3,0.9c-5.7,2.8-10.4,7-13.7,12.1C21,31.6,19,38.1,19,44.9c0,4.4,0.9,9,2.7,13.3   c2.8,6.6,7.4,11.9,12.9,15.5c5.6,3.6,12.1,5.6,18.9,5.6c3.8,0,7.6-0.6,11.3-1.9l0.6,1.5c0.4,1.1,1.7,1.6,2.8,1.2   c1.1-0.4,1.6-1.7,1.2-2.8C69.4,77.3,68,73.9,68,73.8z"/><path class="st0" d="M64.6,87.1H53.2v-6.3c-1.4,0-2.9-0.1-4.3-0.3v6.6H37.5c-1.4,0-2.5,2.2-2.5,3.6c0,1.4,1.1,1.4,2.5,1.4h27   c1.4,0,2.5,0,2.5-1.4C67.1,89.3,66,87.1,64.6,87.1z"/></g><text x="0" y="115" fill="#000000" font-size="5px" font-weight="bold" font-family="'Helvetica Neue', Helvetica, Arial-Unicode, Arial, Sans-serif">Created by ivisual</text><text x="0" y="120" fill="#000000" font-size="5px" font-weight="bold" font-family="'Helvetica Neue', Helvetica, Arial-Unicode, Arial, Sans-serif">from the Noun Project</text></svg>