<?xml version="1.0" encoding="utf-8"?>
<!-- Generator: Adobe Illustrator 21.1.0, SVG Export Plug-In . SVG Version: 6.00 Build 0)  -->
<svg version="1.1" id="Layer_1" xmlns="http://www.w3.org/2000/svg" xmlns:xlink="http://www.w3.org/1999/xlink" x="0px" y="0px"
	 viewBox="0 0 1024 768" style="enable-background:new 0 0 1024 768;" xml:space="preserve">
<style type="text/css">
	.st0{fill:#FFFFFF;}
</style>
<g>
	<path class="st0" d="M551.5,556.5c-97,0-176-79-176-176s79-176,176-176h16c97,0,176,79,176,176s-79,176-176,176H551.5z"/>
	<path d="M567.5,205c46.9,0,90.9,18.3,124.1,51.4c33.1,33.1,51.4,77.2,51.4,124.1c0,46.9-18.3,90.9-51.4,124.1
		c-33.1,33.1-77.2,51.4-124.1,51.4h-16c-46.9,0-90.9-18.3-124.1-51.4c-33.1-33.1-51.4-77.2-51.4-124.1c0-46.9,18.3-90.9,51.4-124.1
		S504.6,205,551.5,205H567.5 M567.5,204h-16C454,204,375,283,375,380.5v0C375,478,454,557,551.5,557h16C665,557,744,478,744,380.5v0
		C744,283,665,204,567.5,204L567.5,204z"/>
</g>
</svg>
