<?xml version="1.0" encoding="utf-8"?>
<!-- Generator: Adobe Illustrator 21.1.0, SVG Export Plug-In . SVG Version: 6.00 Build 0)  -->
<svg version="1.1" id="Layer_1" xmlns="http://www.w3.org/2000/svg" xmlns:xlink="http://www.w3.org/1999/xlink" x="0px" y="0px"
	 viewBox="0 0 87.8 122.2" style="enable-background:new 0 0 87.8 122.2;" xml:space="preserve">
<style type="text/css">
	.st0{display:none;enable-background:new    ;}
	.st1{font-family:'Arial-BoldMT';}
	.st2{font-size:5px;}
</style>
<path d="M34.6,22.4v20.4c0,1-0.5,1.9-1.3,2.2c-4.7,1.6-9.4,3.5-14,5.7c-1.2,0.5-2.4-0.5-2.4-2.1v-0.7c0-1.2-0.8-2.2-1.7-2.2
	c-0.9,0-1.7,1-1.7,2.2v4.3c0,0.9-0.4,1.7-1,2C6.1,57.9,3,61.4,3,64.8c0,2.2,1.4,4,3,4h5.6c1,0,1.8,1,1.8,2.2v4.7
	c0,1.2,0.8,2.2,1.7,2.2c0.9,0,1.7-1,1.7-2.2v-4.7c0-1.2,0.8-2.2,1.8-2.2h14.2c1,0,1.8,1,1.8,2.2v17.8c0,0.9-0.4,1.7-1.1,2.1
	c-6,3-10.4,8.6-10.4,13.3c-0.1,1.1,0.3,2.1,0.9,2.7c1.2,1.1,3.1,0.3,5.9-1.1c3.1-1.5,7.4-3.5,12.3-3.5c4.7,0.1,9.2,1.9,12.8,3.3
	c3.6,1.4,5.9,2.4,7.2,1.1c0.6-0.6,0.9-1.6,0.9-2.6C63,99,57.7,92.9,51,90.1c-0.7-0.3-1.2-1.2-1.2-2.1V71.1c0-1.2,0.8-2.2,1.8-2.2
	h14.9c1,0,1.8,1,1.8,2.2v4.7C68.3,77,69,78,70,78c0.9,0,1.7-1,1.7-2.2c0,0,0,0,0,0v-4.7c0-1.2,0.8-2.2,1.8-2.2H80c1.7,0,3-1.8,3-4
	c0-3.9-4.2-7.8-10.3-11.3c-0.6-0.4-1.1-1.2-1.1-2v-3.6c0-1.2-0.8-2.2-1.7-2.2c-0.9,0-1.7,1-1.7,2.2v0c0,1.6-1.3,2.6-2.4,2.1
	c-4.9-2.3-9.8-4.3-14.8-6c-0.8-0.3-1.3-1.1-1.3-2.2V22.4c0-5.5-3.4-10-7.6-10C38,12.3,34.6,16.8,34.6,22.4
	C34.6,22.4,34.6,22.4,34.6,22.4L34.6,22.4z M6,66.1c-0.6,0-1-0.6-1-1.3l0,0c0-3.4,7.3-9.4,27.2-16.7c1.2-0.4,2.3,0.7,2.3,2.2v13.6
	c0,1.2-0.8,2.2-1.8,2.2H6z M81,64.8c0,0.7-0.5,1.3-1,1.3c0,0,0,0,0,0H51.5c-1,0-1.8-1-1.8-2.2V49.3c0-1.5,1.2-2.6,2.3-2.2
	C69.7,53.5,81,60.3,81,64.8L81,64.8z M47.7,22.4v68.1c-0.1,0.7,0.2,1.4,0.8,1.6c0,0,0,0,0,0c7.7,2.3,12.5,8.7,12.5,12.2
	c0,0.2,0,0.3-0.1,0.5c-0.5,0.5-3.4-0.7-5.4-1.5c-3.5-1.5-8.4-3.4-13.4-3.4c-5.2,0-9.7,2.1-12.9,3.6c-1.6,0.8-3.6,1.7-4.1,1.4
	c0-0.2-0.1-0.4,0-0.6c0-3.5,4.3-9,10.8-11.6c0.4-0.2,0.7-0.7,0.7-1.3l0,0v-69c-0.1-4.1,2.3-7.5,5.3-7.6c3.1-0.2,5.6,3,5.8,7.1
	C47.7,22,47.7,22.2,47.7,22.4L47.7,22.4z"/>
<text transform="matrix(1 0 0 1 0 112.75)" class="st0 st1 st2">Created by JohnnyZi</text>
<text transform="matrix(1 0 0 1 0 117.75)" class="st0 st1 st2">from the Noun Project</text>
</svg>
