<?xml version="1.0" encoding="utf-8"?>
<!-- Generator: Adobe Illustrator 21.1.0, SVG Export Plug-In . SVG Version: 6.00 Build 0)  -->
<svg version="1.1" id="Layer_1" xmlns="http://www.w3.org/2000/svg" xmlns:xlink="http://www.w3.org/1999/xlink" x="0px" y="0px"
	 viewBox="0 0 87.8 122.2" style="enable-background:new 0 0 87.8 122.2;" xml:space="preserve">
<style type="text/css">
	.st0{display:none;enable-background:new    ;}
	.st1{font-family:'Arial-BoldMT';}
	.st2{font-size:5px;}
</style>
<title>080 Plane</title>
<path d="M78.6,38.6H58.1C56.3,31.2,54,24,51.4,16.9h3.7c1.1,0,2.1-0.9,2.1-2.1c0-1.1-0.9-2.1-2.1-2.1h-5.3C46.2,4.3,42.7,0,39.4,0
	c-2.1,0-3.7,1.7-3.7,3.7v9h-6.4c-1.1,0-2.1,0.9-2.1,2.1s0.9,2.1,2.1,2.1h6.4v21.7H15.8c-2.7-8-8.2-14.1-12.8-14.1
	c-1-0.1-1.9,0.3-2.5,1.1c-1,1.5-0.2,3.8,1,7.3c1.3,3.8,3.2,9,3.2,15C4.6,53.6,3,59.1,1.6,63.5s-2.2,7.2-1,8.8
	c0.6,0.7,1.5,1.1,2.4,1.1c5.1,0,11.1-7.3,13.4-16.2h19.2v22.6h-6.4c-1.1,0-2.1,0.9-2.1,2.1c0,1.1,0.9,2.1,2.1,2.1c0,0,0,0,0,0h6.4
	V94c0,2.1,1.7,3.7,3.7,3.7c3.8,0,7.6-5.7,11-13.9h4.7c1.1,0,2.1-0.9,2.1-2.1c0-1.1-0.9-2.1-2.1-2.1h-3c2.7-7.4,5.1-15,7-22.7h19.5
	c5.1,0,9.3-4.1,9.3-9.3S83.7,38.6,78.6,38.6C78.6,38.5,78.6,38.5,78.6,38.6L78.6,38.6z M38.2,3.7c0-0.7,0.6-1.2,1.2-1.2l0,0
	c3.2,0,9.1,9.6,16.1,36.1H38.2V3.7z M39.4,95.3c-0.7,0-1.2-0.6-1.2-1.2c0,0,0,0,0,0V57.1h18.3C50.4,80.3,43.7,95.3,39.4,95.3
	L39.4,95.3z M78.6,54.6H15.8c-0.7-0.2-1.3,0.3-1.5,0.9c0,0,0,0,0,0C12.1,65,6.3,70.9,3,70.9c-0.1,0-0.3,0-0.4-0.1
	c-0.5-0.6,0.6-4.2,1.4-6.6C5.3,59.9,7.1,54,7.1,47.8C7.1,41.5,5.2,36,3.8,32c-0.7-2-1.6-4.5-1.3-5C2.7,27,2.8,27,3,27
	c3.2,0,8.3,5.3,10.7,13.2c0.2,0.5,0.6,0.9,1.2,0.9l0,0h63.7c3.7-0.1,6.9,2.8,7,6.5c0.1,3.7-2.8,6.9-6.5,7
	C78.9,54.6,78.7,54.6,78.6,54.6L78.6,54.6z"/>
<text transform="matrix(1 0 0 1 0 112.75)" class="st0 st1 st2">Created by JohnnyZi</text>
<text transform="matrix(1 0 0 1 0 117.75)" class="st0 st1 st2">from the Noun Project</text>
</svg>
