<svg xmlns="http://www.w3.org/2000/svg" data-name="Layer 6" viewBox="0 0 100 125" class="undefined"><style>.a{font-family:'Helvetica Neue', Helvetica, Arial-Unicode, Arial, Sans-serif;font-size:5px;font-weight:bold;}</style><title class="undefined">  Artboard 1</title><path d="M72.6 70.4C70.2 68.1 64.9 40.3 62.7 39.6 61.1 39 57.4 38 54.8 37.2 59.7 25 61.6 16.9 49.9 16.6 37.7 16.3 42.7 27.1 45 37.2c-2.6 0.7-6.2 1.8-7.9 2.3-2.2 0.7-2.9 27.9-11.3 24.7 6.5 15.5 6.2 3.6 8.5 3.2L44.4 49.4c-0.1 2.3-0.1 4.6-0.1 7-0.1 4.8 0.1 9.7 0.7 14.5l-7.5 7.5c-2.4 2.8-3.9 25.7-1.1 23.2L50 77.8 64.8 101.6C67.5 104 65 81.1 62.6 78.4l-7.8-7.8c0.6-4.7 0.8-9.5 0.7-14.3 0-2.4 0-4.7-0.1-7l12.8 17.5c2.2 0.5 6 5.2 4.4 3.6z" class="undefined"/><g aria-label="Created by W. X. Chee" class="a"><path d="m2.7 113.7 0.7 0.2q-0.2 0.6-0.5 0.9-0.4 0.3-0.9 0.3-0.7 0-1.2-0.5-0.5-0.5-0.5-1.3 0-0.9 0.5-1.4 0.5-0.5 1.2-0.5 0.7 0 1.1 0.4 0.2 0.2 0.4 0.7l-0.7 0.2Q2.6 112.3 2.4 112.1 2.2 112 1.9 112q-0.4 0-0.6 0.3-0.2 0.3-0.2 0.9 0 0.7 0.2 1 0.2 0.3 0.6 0.3 0.3 0 0.5-0.2 0.2-0.2 0.3-0.6z" class="a"/><path d="M4.6 115H3.9v-2.6h0.6v0.4q0.2-0.3 0.3-0.3 0.1-0.1 0.3-0.1 0.2 0 0.5 0.1l-0.2 0.6q-0.2-0.1-0.3-0.1-0.1 0-0.2 0.1-0.1 0.1-0.2 0.3-0.1 0.2-0.1 0.9z" class="a"/><path d="m7.4 114.2 0.7 0.1q-0.1 0.4-0.4 0.6-0.3 0.2-0.7 0.2-0.7 0-1-0.4-0.3-0.4-0.3-0.9 0-0.6 0.3-1 0.3-0.4 0.9-0.4 0.6 0 0.9 0.4 0.3 0.4 0.3 1.2h-1.7q0 0.3 0.2 0.5 0.2 0.2 0.4 0.2 0.2 0 0.3-0.1 0.1-0.1 0.2-0.3zm0-0.7q0-0.3-0.2-0.5-0.1-0.2-0.4-0.2-0.2 0-0.4 0.2-0.1 0.2-0.1 0.4z" class="a"/><path d="m9.2 113.2-0.6-0.1q0.1-0.4 0.4-0.6 0.3-0.2 0.8-0.2 0.5 0 0.7 0.1 0.2 0.1 0.3 0.3 0.1 0.2 0.1 0.6l0 0.8q0 0.3 0 0.5 0 0.2 0.1 0.3h-0.7q0-0.1-0.1-0.2 0-0.1 0-0.1-0.2 0.2-0.4 0.3-0.2 0.1-0.4 0.1-0.4 0-0.6-0.2-0.2-0.2-0.2-0.5 0-0.2 0.1-0.4 0.1-0.2 0.3-0.3 0.2-0.1 0.5-0.2 0.5-0.1 0.7-0.2v-0.1q0-0.2-0.1-0.3-0.1-0.1-0.4-0.1-0.2 0-0.3 0.1-0.1 0.1-0.2 0.3zm0.9 0.6q-0.1 0-0.4 0.1-0.3 0.1-0.4 0.1-0.1 0.1-0.1 0.2 0 0.1 0.1 0.2 0.1 0.1 0.3 0.1 0.2 0 0.4-0.1 0.1-0.1 0.2-0.2 0-0.1 0-0.3z" class="a"/><path d="m12.7 112.4v0.5h-0.5v1q0 0.3 0 0.4 0 0.1 0.1 0.1 0 0 0.1 0 0.1 0 0.3-0.1l0.1 0.5q-0.2 0.1-0.5 0.1-0.2 0-0.3-0.1-0.1-0.1-0.2-0.2-0.1-0.1-0.1-0.3 0-0.1 0-0.5V113H11.2v-0.5h0.3v-0.5l0.7-0.4v0.9z" class="a"/><path d="m14.7 114.2 0.7 0.1q-0.1 0.4-0.4 0.6-0.3 0.2-0.7 0.2-0.7 0-1-0.4-0.3-0.4-0.3-0.9 0-0.6 0.3-1 0.3-0.4 0.9-0.4 0.6 0 0.9 0.4 0.3 0.4 0.3 1.2h-1.7q0 0.3 0.2 0.5 0.2 0.2 0.4 0.2 0.2 0 0.3-0.1 0.1-0.1 0.2-0.3zm0-0.7q0-0.3-0.2-0.5-0.1-0.2-0.4-0.2-0.2 0-0.4 0.2-0.1 0.2-0.1 0.4z" class="a"/><path d="m18.3 115h-0.6v-0.4q-0.2 0.2-0.4 0.3-0.2 0.1-0.4 0.1-0.4 0-0.8-0.4-0.3-0.4-0.3-1 0-0.7 0.3-1 0.3-0.3 0.8-0.3 0.4 0 0.8 0.4v-1.3h0.7zm-1.8-1.4q0 0.4 0.1 0.6 0.2 0.3 0.5 0.3 0.2 0 0.4-0.2 0.2-0.2 0.2-0.6 0-0.4-0.2-0.6-0.2-0.2-0.4-0.2-0.2 0-0.4 0.2-0.2 0.2-0.2 0.6z" class="a"/><path d="m20.3 115v-3.6h0.7v1.3q0.3-0.4 0.8-0.4 0.5 0 0.8 0.3 0.3 0.3 0.3 1 0 0.7-0.3 1-0.3 0.4-0.8 0.4-0.2 0-0.4-0.1-0.2-0.1-0.4-0.3V115Zm0.7-1.4q0 0.4 0.1 0.6 0.2 0.3 0.5 0.3 0.2 0 0.4-0.2 0.2-0.2 0.2-0.6 0-0.4-0.2-0.6-0.2-0.2-0.4-0.2-0.2 0-0.4 0.2-0.2 0.2-0.2 0.6z" class="a"/><path d="m23.1 112.4h0.7l0.6 1.8 0.6-1.8h0.7l-0.9 2.5-0.2 0.5q-0.1 0.2-0.2 0.3-0.1 0.1-0.2 0.2-0.1 0.1-0.3 0.1-0.2 0-0.3 0-0.2 0-0.4 0l-0.1-0.5q0.2 0 0.3 0 0.2 0 0.4-0.1 0.1-0.1 0.2-0.4z" class="a"/><path d="m28.1 115-0.9-3.6h0.7l0.5 2.5 0.7-2.5h0.9l0.6 2.5 0.5-2.5h0.7L31.1 115H30.3L29.6 112.3 28.9 115Z" class="a"/><path d="m32 115v-0.7h0.7V115Z" class="a"/><path d="m34.5 115 1.2-1.9-1.1-1.7h0.8l0.7 1.1 0.7-1.1h0.8L36.6 113.2 37.8 115H36.9L36.1 113.8 35.3 115Z" class="a"/><path d="m38.2 115v-0.7h0.7V115Z" class="a"/><path d="m43.2 113.7 0.7 0.2q-0.2 0.6-0.5 0.9-0.4 0.3-0.9 0.3-0.7 0-1.2-0.5-0.5-0.5-0.5-1.3 0-0.9 0.5-1.4 0.5-0.5 1.2-0.5 0.7 0 1.1 0.4 0.2 0.2 0.4 0.7l-0.7 0.2q-0.1-0.3-0.3-0.4-0.2-0.2-0.5-0.2-0.4 0-0.6 0.3-0.2 0.3-0.2 0.9 0 0.7 0.2 1 0.2 0.3 0.6 0.3 0.3 0 0.5-0.2 0.2-0.2 0.3-0.6z" class="a"/><path d="m45.2 111.4v1.3q0.3-0.4 0.8-0.4 0.2 0 0.4 0.1 0.2 0.1 0.3 0.2 0.1 0.1 0.1 0.3 0 0.2 0 0.5V115h-0.7v-1.4q0-0.4 0-0.5 0-0.1-0.1-0.2-0.1-0.1-0.2-0.1-0.2 0-0.3 0.1-0.1 0.1-0.2 0.3-0.1 0.2-0.1 0.5V115h-0.7v-3.6z" class="a"/><path d="m49.1 114.2 0.7 0.1q-0.1 0.4-0.4 0.6-0.3 0.2-0.7 0.2-0.7 0-1-0.4-0.3-0.4-0.3-0.9 0-0.6 0.3-1 0.3-0.4 0.9-0.4 0.6 0 0.9 0.4 0.3 0.4 0.3 1.2h-1.7q0 0.3 0.2 0.5 0.2 0.2 0.4 0.2 0.2 0 0.3-0.1 0.1-0.1 0.2-0.3zm0-0.7q0-0.3-0.2-0.5-0.1-0.2-0.4-0.2-0.2 0-0.4 0.2-0.1 0.2-0.1 0.4z" class="a"/><path d="m51.9 114.2 0.7 0.1q-0.1 0.4-0.4 0.6-0.3 0.2-0.7 0.2-0.7 0-1-0.4-0.3-0.4-0.3-0.9 0-0.6 0.3-1 0.3-0.4 0.9-0.4 0.6 0 0.9 0.4 0.3 0.4 0.3 1.2h-1.7q0 0.3 0.2 0.5 0.2 0.2 0.4 0.2 0.2 0 0.3-0.1 0.1-0.1 0.2-0.3zm0-0.7q0-0.3-0.2-0.5-0.1-0.2-0.4-0.2-0.2 0-0.4 0.2-0.1 0.2-0.1 0.4z" class="a"/></g><g aria-label="from the Noun Project" class="a"><path d="m0.1 117.4h0.4v-0.2q0-0.3 0.1-0.5 0.1-0.2 0.3-0.3 0.2-0.1 0.5-0.1 0.3 0 0.6 0.1l-0.1 0.5q-0.2 0-0.3 0-0.1 0-0.2 0.1-0.1 0.1-0.1 0.3v0.2h0.5v0.5H1.1V120H0.4v-2.1H0.1Z" class="a"/><path d="M2.7 120H2v-2.6h0.6v0.4q0.2-0.3 0.3-0.3 0.1-0.1 0.3-0.1 0.2 0 0.5 0.1l-0.2 0.6q-0.2-0.1-0.3-0.1-0.1 0-0.2 0.1-0.1 0.1-0.2 0.3-0.1 0.2-0.1 0.9z" class="a"/><path d="m3.8 118.7q0-0.3 0.2-0.7 0.2-0.3 0.5-0.5 0.3-0.2 0.7-0.2 0.6 0 1 0.4 0.4 0.4 0.4 1 0 0.6-0.4 1-0.4 0.4-1 0.4-0.4 0-0.7-0.2-0.3-0.2-0.5-0.5-0.2-0.3-0.2-0.8zm0.7 0q0 0.4 0.2 0.6 0.2 0.2 0.5 0.2 0.3 0 0.4-0.2 0.2-0.2 0.2-0.6 0-0.4-0.2-0.6-0.2-0.2-0.4-0.2-0.3 0-0.5 0.2-0.2 0.2-0.2 0.6z" class="a"/><path d="m7 117.4h0.6v0.4q0.3-0.4 0.8-0.4 0.2 0 0.4 0.1 0.2 0.1 0.3 0.3 0.2-0.2 0.4-0.3 0.2-0.1 0.4-0.1 0.3 0 0.5 0.1 0.2 0.1 0.3 0.3 0.1 0.2 0.1 0.5V120H10.1v-1.5q0-0.4-0.1-0.5-0.1-0.1-0.3-0.1-0.1 0-0.3 0.1-0.1 0.1-0.2 0.3-0.1 0.2-0.1 0.5V120H8.5v-1.4q0-0.4 0-0.5 0-0.1-0.1-0.2-0.1-0.1-0.2-0.1-0.2 0-0.3 0.1-0.1 0.1-0.2 0.2-0.1 0.2-0.1 0.5V120H7Z" class="a"/><path d="m14 117.4v0.5h-0.5v1q0 0.3 0 0.4 0 0.1 0.1 0.1 0 0 0.1 0 0.1 0 0.3-0.1l0.1 0.5q-0.2 0.1-0.5 0.1-0.2 0-0.3-0.1-0.1-0.1-0.2-0.2-0.1-0.1-0.1-0.3 0-0.1 0-0.5v-1.1h-0.3v-0.5h0.3v-0.5l0.7-0.4v0.9z" class="a"/><path d="m15.2 116.4v1.3q0.3-0.4 0.8-0.4 0.2 0 0.4 0.1 0.2 0.1 0.3 0.2 0.1 0.1 0.1 0.3 0 0.2 0 0.5V120h-0.7v-1.4q0-0.4 0-0.5 0-0.1-0.1-0.2-0.1-0.1-0.2-0.1-0.2 0-0.3 0.1-0.1 0.1-0.2 0.3-0.1 0.2-0.1 0.5V120h-0.7v-3.6z" class="a"/><path d="m19.1 119.2 0.7 0.1q-0.1 0.4-0.4 0.6-0.3 0.2-0.7 0.2-0.7 0-1-0.4-0.3-0.4-0.3-0.9 0-0.6 0.3-1 0.3-0.4 0.9-0.4 0.6 0 0.9 0.4 0.3 0.4 0.3 1.2h-1.7q0 0.3 0.2 0.5 0.2 0.2 0.4 0.2 0.2 0 0.3-0.1 0.1-0.1 0.2-0.3zm0-0.7q0-0.3-0.2-0.5-0.1-0.2-0.4-0.2-0.2 0-0.4 0.2-0.1 0.2-0.1 0.4z" class="a"/><path d="m21.8 120v-3.6h0.7l1.5 2.4v-2.4h0.7V120h-0.7l-1.4-2.3V120Z" class="a"/><path d="m25.2 118.7q0-0.3 0.2-0.7 0.2-0.3 0.5-0.5 0.3-0.2 0.7-0.2 0.6 0 1 0.4 0.4 0.4 0.4 1 0 0.6-0.4 1-0.4 0.4-1 0.4-0.4 0-0.7-0.2-0.3-0.2-0.5-0.5-0.2-0.3-0.2-0.8zm0.7 0q0 0.4 0.2 0.6 0.2 0.2 0.5 0.2 0.3 0 0.4-0.2 0.2-0.2 0.2-0.6 0-0.4-0.2-0.6-0.2-0.2-0.4-0.2-0.3 0-0.5 0.2-0.2 0.2-0.2 0.6z" class="a"/><path d="m30.1 120v-0.4q-0.1 0.2-0.4 0.3-0.2 0.1-0.5 0.1-0.3 0-0.5-0.1-0.2-0.1-0.3-0.3-0.1-0.2-0.1-0.6v-1.6h0.7v1.2q0 0.5 0 0.7 0 0.1 0.1 0.2 0.1 0.1 0.3 0.1 0.2 0 0.3-0.1 0.1-0.1 0.2-0.2 0.1-0.1 0.1-0.7v-1.1h0.7V120Z" class="a"/><path d="m33.8 120h-0.7v-1.3q0-0.4 0-0.5 0-0.1-0.1-0.2-0.1-0.1-0.2-0.1-0.2 0-0.3 0.1-0.1 0.1-0.2 0.3-0.1 0.2-0.1 0.6V120h-0.7v-2.6h0.6v0.4q0.3-0.4 0.9-0.4 0.2 0 0.4 0.1 0.2 0.1 0.3 0.2 0.1 0.1 0.1 0.3 0 0.2 0 0.5z" class="a"/><path d="m35.9 120v-3.6h1.2q0.7 0 0.9 0.1 0.3 0.1 0.5 0.4 0.2 0.3 0.2 0.7 0 0.3-0.1 0.6-0.1 0.2-0.3 0.4-0.2 0.1-0.4 0.2-0.3 0.1-0.7 0.1H36.7V120Zm0.7-3v1h0.4q0.4 0 0.6-0.1 0.1-0.1 0.2-0.2 0.1-0.1 0.1-0.3 0-0.2-0.1-0.3-0.1-0.1-0.3-0.2-0.1 0-0.5 0z" class="a"/><path d="M39.9 120H39.2v-2.6h0.6v0.4q0.2-0.3 0.3-0.3 0.1-0.1 0.3-0.1 0.2 0 0.5 0.1l-0.2 0.6q-0.2-0.1-0.3-0.1-0.1 0-0.2 0.1-0.1 0.1-0.2 0.3-0.1 0.2-0.1 0.9z" class="a"/><path d="m41 118.7q0-0.3 0.2-0.7 0.2-0.3 0.5-0.5 0.3-0.2 0.7-0.2 0.6 0 1 0.4 0.4 0.4 0.4 1 0 0.6-0.4 1-0.4 0.4-1 0.4-0.4 0-0.7-0.2-0.3-0.2-0.5-0.5-0.2-0.3-0.2-0.8zm0.7 0q0 0.4 0.2 0.6 0.2 0.2 0.5 0.2 0.3 0 0.4-0.2 0.2-0.2 0.2-0.6 0-0.4-0.2-0.6-0.2-0.2-0.4-0.2-0.3 0-0.5 0.2-0.2 0.2-0.2 0.6z" class="a"/><path d="m44.3 117.1v-0.6h0.7v0.6zm0.7 0.4v2.5q0 0.5-0.1 0.7-0.1 0.2-0.2 0.3-0.2 0.1-0.5 0.1-0.1 0-0.2 0-0.1 0-0.3-0.1l0.1-0.6q0 0 0.1 0 0 0 0.1 0 0.1 0 0.2 0 0.1 0 0.1-0.1 0-0.1 0-0.4v-2.5z" class="a"/><path d="m47.2 119.2 0.7 0.1q-0.1 0.4-0.4 0.6-0.3 0.2-0.7 0.2-0.7 0-1-0.4-0.3-0.4-0.3-0.9 0-0.6 0.3-1 0.3-0.4 0.9-0.4 0.6 0 0.9 0.4 0.3 0.4 0.3 1.2h-1.7q0 0.3 0.2 0.5 0.2 0.2 0.4 0.2 0.2 0 0.3-0.1 0.1-0.1 0.2-0.3zm0-0.7q0-0.3-0.2-0.5-0.1-0.2-0.4-0.2-0.2 0-0.4 0.2-0.1 0.2-0.1 0.4z" class="a"/><path d="m50.7 118.2-0.7 0.1q0-0.2-0.2-0.3-0.1-0.1-0.3-0.1-0.3 0-0.4 0.2-0.2 0.2-0.2 0.6 0 0.5 0.2 0.7 0.2 0.2 0.4 0.2 0.2 0 0.3-0.1 0.1-0.1 0.2-0.4l0.7 0.1q-0.1 0.5-0.4 0.7-0.3 0.2-0.8 0.2-0.6 0-0.9-0.4-0.3-0.4-0.3-1 0-0.6 0.3-1 0.3-0.4 0.9-0.4 0.5 0 0.8 0.2 0.3 0.2 0.4 0.6z" class="a"/><path d="m52.4 117.4v0.5h-0.5v1q0 0.3 0 0.4 0 0.1 0.1 0.1 0 0 0.1 0 0.1 0 0.3-0.1l0.1 0.5q-0.2 0.1-0.5 0.1-0.2 0-0.3-0.1-0.1-0.1-0.2-0.2-0.1-0.1-0.1-0.3Q51.3 119.4 51.3 119.1v-1.1h-0.3v-0.5H51.3v-0.5l0.7-0.4v0.9z" class="a"/></g></svg>