<svg xmlns="http://www.w3.org/2000/svg" data-name="Layer 6" viewBox="0 0 100 125" x="0px" y="0px"><title>Artboard 1</title><path d="M80.51,48.73c-2.36-2.37-15.59-8.45-17.82-9.17C61.05,39,57.41,38,54.81,37.24,53.85,25,52,16.62,49.88,16.62s-4,8.33-4.93,20.62c-2.6.74-6.24,1.8-7.87,2.32-2.23.72-15.47,6.79-17.82,9.17-1.59,1.61-.51,3.79,1.72,3.33l23.37-2.71q-.09,3.4-.09,7A101.36,101.36,0,0,0,45,70.82l-7.51,7.51a2.94,2.94,0,0,0,4.15,4.15L50,77.79l8.43,4.73a2.94,2.94,0,0,0,4.15-4.15l-7.76-7.76a104.46,104.46,0,0,0,.68-14.29q0-3.57-.09-7l23.37,2.71C81,52.52,82.1,50.34,80.51,48.73Z"/><text x="0" y="115" fill="#000000" font-size="5px" font-weight="bold" font-family="'Helvetica Neue', Helvetica, Arial-Unicode, Arial, Sans-serif">Created by W. X. Chee</text><text x="0" y="120" fill="#000000" font-size="5px" font-weight="bold" font-family="'Helvetica Neue', Helvetica, Arial-Unicode, Arial, Sans-serif">from the Noun Project</text></svg>