<svg xmlns="http://www.w3.org/2000/svg" data-name="Layer 8" viewBox="0 0 100 125" x="0px" y="0px"><title>Artboard 1</title><path d="M32,63.9a5.36,5.36,0,1,1-5.36-5.36A5.36,5.36,0,0,1,32,63.9Zm41.36-5.36a5.36,5.36,0,1,0,5.36,5.36A5.36,5.36,0,0,0,73.36,58.55ZM90,44V57.91a4.85,4.85,0,0,1-5.07,4.83h-5a6.57,6.57,0,0,0-13,0H33.06a6.57,6.57,0,0,0-13,0h-5A4.85,4.85,0,0,1,10,57.91V35.51a4.79,4.79,0,0,1,5.07-4.76H76.43A13.28,13.28,0,0,1,90,44ZM29,34.74H14v11H29Zm18,0H32v11H47Zm18,0H50v11H65Zm21.38,11c0-6-3.58-11-9.56-11H68v11Z"/><text x="0" y="115" fill="#000000" font-size="5px" font-weight="bold" font-family="'Helvetica Neue', Helvetica, Arial-Unicode, Arial, Sans-serif">Created by W. X. Chee</text><text x="0" y="120" fill="#000000" font-size="5px" font-weight="bold" font-family="'Helvetica Neue', Helvetica, Arial-Unicode, Arial, Sans-serif">from the Noun Project</text></svg>