<?xml version="1.0" encoding="UTF-8" standalone="no"?>
<svg
   xmlns:dc="http://purl.org/dc/elements/1.1/"
   xmlns:cc="http://creativecommons.org/ns#"
   xmlns:rdf="http://www.w3.org/1999/02/22-rdf-syntax-ns#"
   xmlns:svg="http://www.w3.org/2000/svg"
   xmlns="http://www.w3.org/2000/svg"
   xmlns:sodipodi="http://sodipodi.sourceforge.net/DTD/sodipodi-0.dtd"
   xmlns:inkscape="http://www.inkscape.org/namespaces/inkscape"
   data-name="Layer 6"
   viewBox="0 0 100 125"
   x="0px"
   y="0px"
   version="1.1"
   id="svg10"
   sodipodi:docname="startplane1.svg"
   inkscape:version="0.92.1 r15371">
  <metadata
     id="metadata16">
    <rdf:RDF>
      <cc:Work
         rdf:about="">
        <dc:format>image/svg+xml</dc:format>
        <dc:type
           rdf:resource="http://purl.org/dc/dcmitype/StillImage" />
        <dc:title>Artboard 1</dc:title>
      </cc:Work>
    </rdf:RDF>
  </metadata>
  <defs
     id="defs14" />
  <sodipodi:namedview
     pagecolor="#ffffff"
     bordercolor="#666666"
     borderopacity="1"
     objecttolerance="10"
     gridtolerance="10"
     guidetolerance="10"
     inkscape:pageopacity="0"
     inkscape:pageshadow="2"
     inkscape:window-width="1920"
     inkscape:window-height="1001"
     id="namedview12"
     showgrid="false"
     inkscape:zoom="1.888"
     inkscape:cx="-19.120763"
     inkscape:cy="62.5"
     inkscape:window-x="-9"
     inkscape:window-y="-9"
     inkscape:window-maximized="1"
     inkscape:current-layer="g19" />
  <title
     id="title2">Artboard 1</title>
  <g
     id="g19">
    <path
       id="path4"
       d="M 72.565085,70.446101 C 70.205085,68.076101 64.92,40.28 62.69,39.56 61.05,39 57.41,38 54.81,37.24 59.676271,25 61.578565,16.901214 49.88,16.62 37.731242,16.327964 42.702034,27.068644 44.95,37.24 c -2.6,0.74 -6.24,1.8 -7.87,2.32 -2.23,0.72 -2.858475,27.860169 -11.333051,24.682203 6.486949,15.512204 6.244576,3.637966 8.474576,3.177966 L 44.35,49.35 c -0.06,2.266667 -0.09,4.6 -0.09,7 -0.09883,4.83481 0.148472,9.670495 0.74,14.47 l -7.51,7.51 c -2.442784,2.761782 -3.908393,25.66058 -1.14661,23.2178 L 50,77.79 64.785932,101.5878 C 67.547715,104.03058 65.022784,81.131782 62.58,78.37 l -7.76,-7.76 c 0.552961,-4.742197 0.780161,-9.516724 0.68,-14.29 0,-2.38 -0.03,-4.713333 -0.09,-7 l 12.77678,17.540508 c 2.22,0.49 5.968305,5.195593 4.378305,3.585593 z"
       inkscape:connector-curvature="0"
       sodipodi:nodetypes="cccsccccccccccccccccc" />
  </g>
  <g
     aria-label="Created by W. X. Chee"
     style="font-weight:bold;font-size:5px;font-family:'Helvetica Neue', Helvetica, Arial-Unicode, Arial, Sans-serif;fill:#000000"
     id="text6">
    <path
       d="m 2.6538086,113.68408 0.7006836,0.22217 q -0.1611328,0.58594 -0.5371094,0.87158 -0.3735351,0.28321 -0.949707,0.28321 -0.7128906,0 -1.17187502,-0.48584 -0.45898437,-0.48829 -0.45898437,-1.33301 0,-0.89356 0.46142578,-1.38672 0.46142581,-0.49561 1.21337891,-0.49561 0.6567383,0 1.0668945,0.38819 0.2441407,0.22949 0.366211,0.65918 l -0.7153321,0.1709 Q 2.565918,112.2998 2.3632813,112.13867 2.1630859,111.97754 1.875,111.97754 q -0.3979492,0 -0.6469727,0.28564 -0.24658199,0.28565 -0.24658199,0.9253 0,0.67871 0.24414059,0.96679 0.2441407,0.28809 0.6347657,0.28809 0.2880859,0 0.4956054,-0.18311 0.2075196,-0.1831 0.2978516,-0.57617 z"
       style="font-weight:bold;font-size:5px;font-family:'Helvetica Neue', Helvetica, Arial-Unicode, Arial, Sans-serif;fill:#000000"
       id="path96"
       inkscape:connector-curvature="0" />
    <path
       d="M 4.6289062,115 H 3.9428711 v -2.59277 h 0.637207 v 0.36865 q 0.1635742,-0.26123 0.2929688,-0.34424 0.1318359,-0.083 0.2978515,-0.083 0.234375,0 0.4516602,0.1294 l -0.2124024,0.59814 q -0.1733398,-0.1123 -0.3222656,-0.1123 -0.1440429,0 -0.2441406,0.0806 -0.1000977,0.0781 -0.1586914,0.28565 -0.056152,0.20752 -0.056152,0.86914 z"
       style="font-weight:bold;font-size:5px;font-family:'Helvetica Neue', Helvetica, Arial-Unicode, Arial, Sans-serif;fill:#000000"
       id="path98"
       inkscape:connector-curvature="0" />
    <path
       d="m 7.4169922,114.1748 0.6835937,0.11475 q -0.1318359,0.37598 -0.4174804,0.57373 -0.2832032,0.19531 -0.7104493,0.19531 -0.6762695,0 -1.0009765,-0.44189 -0.2563477,-0.354 -0.2563477,-0.89356 0,-0.64453 0.3369141,-1.0083 0.3369141,-0.36621 0.8520508,-0.36621 0.5786133,0 0.9130859,0.3833 0.3344727,0.38086 0.3198242,1.16944 h -1.71875 q 0.00732,0.30517 0.1660157,0.47607 0.1586914,0.16846 0.3955078,0.16846 0.1611328,0 0.2709961,-0.0879 0.1098632,-0.0879 0.1660156,-0.28321 z m 0.039063,-0.69335 q -0.00732,-0.29786 -0.1538086,-0.45166 -0.1464844,-0.15625 -0.3564453,-0.15625 -0.2246094,0 -0.3710938,0.16357 -0.1464843,0.16357 -0.1440429,0.44434 z"
       style="font-weight:bold;font-size:5px;font-family:'Helvetica Neue', Helvetica, Arial-Unicode, Arial, Sans-serif;fill:#000000"
       id="path100"
       inkscape:connector-curvature="0" />
    <path
       d="m 9.2114258,113.19824 -0.6225586,-0.1123 q 0.1049805,-0.37598 0.3613281,-0.55664 0.2563477,-0.18067 0.7617188,-0.18067 0.4589839,0 0.6835939,0.10987 0.224609,0.10742 0.314941,0.27588 0.09277,0.16601 0.09277,0.61279 l -0.0073,0.80078 q 0,0.3418 0.03174,0.50537 0.03418,0.16113 0.124511,0.34668 h -0.67871 q -0.02686,-0.0684 -0.06592,-0.20264 -0.01709,-0.061 -0.02442,-0.0806 -0.175781,0.1709 -0.3759761,0.25634 -0.2001953,0.0854 -0.4272461,0.0854 -0.4003906,0 -0.6323242,-0.21728 -0.2294922,-0.21729 -0.2294922,-0.54932 0,-0.21972 0.1049805,-0.39062 0.1049804,-0.17334 0.2929687,-0.26367 0.1904297,-0.0928 0.546875,-0.16114 0.4809571,-0.0903 0.6665044,-0.16845 v -0.0684 q 0,-0.19776 -0.09766,-0.28077 -0.097656,-0.0854 -0.3686521,-0.0854 -0.1831054,0 -0.2856445,0.0732 -0.1025391,0.0708 -0.1660156,0.25146 z m 0.9179692,0.55664 q -0.1318364,0.0439 -0.4174809,0.10498 -0.2856446,0.061 -0.3735352,0.11963 -0.1342773,0.0952 -0.1342773,0.2417 0,0.14404 0.1074218,0.24902 0.1074219,0.10499 0.2734375,0.10499 0.1855469,0 0.3540039,-0.12207 0.1245122,-0.0928 0.1635742,-0.22706 0.02686,-0.0879 0.02686,-0.33447 z"
       style="font-weight:bold;font-size:5px;font-family:'Helvetica Neue', Helvetica, Arial-Unicode, Arial, Sans-serif;fill:#000000"
       id="path102"
       inkscape:connector-curvature="0" />
    <path
       d="m 12.670898,112.40723 v 0.54687 h -0.46875 v 1.04492 q 0,0.31739 0.01221,0.3711 0.01465,0.0513 0.06104,0.0854 0.04883,0.0342 0.117187,0.0342 0.09521,0 0.275879,-0.0659 l 0.05859,0.53222 q -0.239258,0.10254 -0.541992,0.10254 -0.185547,0 -0.334473,-0.061 -0.148926,-0.0635 -0.219727,-0.16113 -0.06836,-0.1001 -0.09521,-0.26856 -0.02197,-0.11963 -0.02197,-0.4834 V 112.9541 H 11.19873 v -0.54687 h 0.314942 v -0.51514 l 0.688476,-0.40039 v 0.91553 z"
       style="font-weight:bold;font-size:5px;font-family:'Helvetica Neue', Helvetica, Arial-Unicode, Arial, Sans-serif;fill:#000000"
       id="path104"
       inkscape:connector-curvature="0" />
    <path
       d="m 14.65332,114.1748 0.683594,0.11475 q -0.131836,0.37598 -0.41748,0.57373 -0.283204,0.19531 -0.71045,0.19531 -0.676269,0 -1.000976,-0.44189 -0.256348,-0.354 -0.256348,-0.89356 0,-0.64453 0.336914,-1.0083 0.336914,-0.36621 0.852051,-0.36621 0.578613,0 0.913086,0.3833 0.334473,0.38086 0.319824,1.16944 h -1.71875 q 0.0073,0.30517 0.166016,0.47607 0.158691,0.16846 0.395508,0.16846 0.161132,0 0.270996,-0.0879 0.109863,-0.0879 0.166015,-0.28321 z m 0.03906,-0.69335 q -0.0073,-0.29786 -0.153809,-0.45166 -0.146484,-0.15625 -0.356445,-0.15625 -0.224609,0 -0.371094,0.16357 -0.146484,0.16357 -0.144043,0.44434 z"
       style="font-weight:bold;font-size:5px;font-family:'Helvetica Neue', Helvetica, Arial-Unicode, Arial, Sans-serif;fill:#000000"
       id="path106"
       inkscape:connector-curvature="0" />
    <path
       d="m 18.312988,115 h -0.637207 v -0.38086 q -0.158691,0.22217 -0.375976,0.33203 -0.214844,0.10742 -0.434571,0.10742 -0.446777,0 -0.766601,-0.35888 -0.317383,-0.36133 -0.317383,-1.00586 0,-0.65918 0.310059,-1.00098 0.310058,-0.34424 0.783691,-0.34424 0.43457,0 0.751953,0.36133 v -1.28906 h 0.686035 z m -1.831054,-1.35254 q 0,0.41504 0.114746,0.60059 0.166015,0.26855 0.463867,0.26855 0.236816,0 0.402832,-0.20019 0.166016,-0.20264 0.166016,-0.60303 0,-0.44678 -0.161133,-0.64209 -0.161133,-0.19775 -0.412598,-0.19775 -0.244141,0 -0.410156,0.19531 -0.163574,0.19287 -0.163574,0.57861 z"
       style="font-weight:bold;font-size:5px;font-family:'Helvetica Neue', Helvetica, Arial-Unicode, Arial, Sans-serif;fill:#000000"
       id="path108"
       inkscape:connector-curvature="0" />
    <path
       d="m 20.349121,115 v -3.5791 h 0.686035 v 1.28906 q 0.317383,-0.36133 0.751953,-0.36133 0.473633,0 0.783692,0.34424 0.310058,0.3418 0.310058,0.98389 0,0.66406 -0.317382,1.02295 -0.314942,0.35888 -0.766602,0.35888 -0.222168,0 -0.439453,-0.10986 -0.214844,-0.1123 -0.371094,-0.32959 V 115 Z m 0.681152,-1.35254 q 0,0.40283 0.126954,0.5957 0.178222,0.27344 0.473632,0.27344 0.227051,0 0.385743,-0.19287 0.161132,-0.19531 0.161132,-0.61279 0,-0.44434 -0.161132,-0.63965 -0.161133,-0.19775 -0.412598,-0.19775 -0.246582,0 -0.410156,0.19287 -0.163575,0.19043 -0.163575,0.58105 z"
       style="font-weight:bold;font-size:5px;font-family:'Helvetica Neue', Helvetica, Arial-Unicode, Arial, Sans-serif;fill:#000000"
       id="path110"
       inkscape:connector-curvature="0" />
    <path
       d="m 23.110352,112.40723 h 0.72998 l 0.620117,1.84082 0.605469,-1.84082 h 0.710449 l -0.915527,2.49511 -0.163574,0.45166 q -0.09033,0.22705 -0.17334,0.34668 -0.08057,0.11963 -0.187989,0.19287 -0.10498,0.0757 -0.26123,0.11719 -0.153809,0.0415 -0.349121,0.0415 -0.197754,0 -0.388184,-0.0415 l -0.06104,-0.53711 q 0.161133,0.0317 0.290528,0.0317 0.239257,0 0.354003,-0.1416 0.114747,-0.13916 0.175782,-0.35645 z"
       style="font-weight:bold;font-size:5px;font-family:'Helvetica Neue', Helvetica, Arial-Unicode, Arial, Sans-serif;fill:#000000"
       id="path112"
       inkscape:connector-curvature="0" />
    <path
       d="m 28.098145,115 -0.854493,-3.5791 h 0.739746 l 0.539551,2.45849 0.654297,-2.45849 h 0.859375 l 0.627441,2.5 0.549317,-2.5 h 0.727539 L 31.071777,115 H 30.305176 L 29.592285,112.32422 28.881836,115 Z"
       style="font-weight:bold;font-size:5px;font-family:'Helvetica Neue', Helvetica, Arial-Unicode, Arial, Sans-serif;fill:#000000"
       id="path114"
       inkscape:connector-curvature="0" />
    <path
       d="m 32.04834,115 v -0.68604 h 0.686035 V 115 Z"
       style="font-weight:bold;font-size:5px;font-family:'Helvetica Neue', Helvetica, Arial-Unicode, Arial, Sans-serif;fill:#000000"
       id="path116"
       inkscape:connector-curvature="0" />
    <path
       d="m 34.462891,115 1.223144,-1.86768 -1.108398,-1.71142 h 0.844726 l 0.717774,1.1499 0.703125,-1.1499 h 0.837402 L 36.567383,113.15918 37.790527,115 H 36.918945 L 36.125488,113.76221 35.32959,115 Z"
       style="font-weight:bold;font-size:5px;font-family:'Helvetica Neue', Helvetica, Arial-Unicode, Arial, Sans-serif;fill:#000000"
       id="path118"
       inkscape:connector-curvature="0" />
    <path
       d="m 38.161621,115 v -0.68604 h 0.686035 V 115 Z"
       style="font-weight:bold;font-size:5px;font-family:'Helvetica Neue', Helvetica, Arial-Unicode, Arial, Sans-serif;fill:#000000"
       id="path120"
       inkscape:connector-curvature="0" />
    <path
       d="m 43.22998,113.68408 0.700684,0.22217 q -0.161133,0.58594 -0.537109,0.87158 -0.373535,0.28321 -0.949707,0.28321 -0.712891,0 -1.171875,-0.48584 -0.458985,-0.48829 -0.458985,-1.33301 0,-0.89356 0.461426,-1.38672 0.461426,-0.49561 1.213379,-0.49561 0.656738,0 1.066894,0.38819 0.244141,0.22949 0.366211,0.65918 l -0.715332,0.1709 q -0.06348,-0.27833 -0.266113,-0.43946 -0.200195,-0.16113 -0.488281,-0.16113 -0.397949,0 -0.646973,0.28564 -0.246582,0.28565 -0.246582,0.9253 0,0.67871 0.244141,0.96679 0.24414,0.28809 0.634765,0.28809 0.288086,0 0.495606,-0.18311 0.207519,-0.1831 0.297851,-0.57617 z"
       style="font-weight:bold;font-size:5px;font-family:'Helvetica Neue', Helvetica, Arial-Unicode, Arial, Sans-serif;fill:#000000"
       id="path122"
       inkscape:connector-curvature="0" />
    <path
       d="m 45.231934,111.4209 v 1.31592 q 0.332031,-0.38819 0.793457,-0.38819 0.236816,0 0.427246,0.0879 0.190429,0.0879 0.285644,0.22461 0.09766,0.13672 0.131836,0.30274 0.03662,0.16601 0.03662,0.51513 V 115 h -0.686035 v -1.36963 q 0,-0.40771 -0.03906,-0.51758 -0.03906,-0.10986 -0.139161,-0.17334 -0.09766,-0.0659 -0.246582,-0.0659 -0.170898,0 -0.305175,0.083 -0.134278,0.083 -0.197754,0.25147 -0.06103,0.16601 -0.06103,0.49316 V 115 h -0.686036 v -3.5791 z"
       style="font-weight:bold;font-size:5px;font-family:'Helvetica Neue', Helvetica, Arial-Unicode, Arial, Sans-serif;fill:#000000"
       id="path124"
       inkscape:connector-curvature="0" />
    <path
       d="m 49.106445,114.1748 0.683594,0.11475 q -0.131836,0.37598 -0.41748,0.57373 -0.283204,0.19531 -0.71045,0.19531 -0.676269,0 -1.000976,-0.44189 -0.256348,-0.354 -0.256348,-0.89356 0,-0.64453 0.336914,-1.0083 0.336914,-0.36621 0.852051,-0.36621 0.578613,0 0.913086,0.3833 0.334473,0.38086 0.319824,1.16944 h -1.71875 q 0.0073,0.30517 0.166016,0.47607 0.158691,0.16846 0.395508,0.16846 0.161132,0 0.270996,-0.0879 0.109863,-0.0879 0.166015,-0.28321 z m 0.03906,-0.69335 q -0.0073,-0.29786 -0.153809,-0.45166 -0.146484,-0.15625 -0.356445,-0.15625 -0.224609,0 -0.371094,0.16357 -0.146484,0.16357 -0.144043,0.44434 z"
       style="font-weight:bold;font-size:5px;font-family:'Helvetica Neue', Helvetica, Arial-Unicode, Arial, Sans-serif;fill:#000000"
       id="path126"
       inkscape:connector-curvature="0" />
    <path
       d="m 51.889648,114.1748 0.683594,0.11475 q -0.131836,0.37598 -0.41748,0.57373 -0.283203,0.19531 -0.71045,0.19531 -0.676269,0 -1.000976,-0.44189 -0.256348,-0.354 -0.256348,-0.89356 0,-0.64453 0.336914,-1.0083 0.336914,-0.36621 0.852051,-0.36621 0.578613,0 0.913086,0.3833 0.334473,0.38086 0.319824,1.16944 h -1.71875 q 0.0073,0.30517 0.166016,0.47607 0.158691,0.16846 0.395508,0.16846 0.161133,0 0.270996,-0.0879 0.109863,-0.0879 0.166015,-0.28321 z m 0.03906,-0.69335 q -0.0073,-0.29786 -0.153809,-0.45166 -0.146484,-0.15625 -0.356445,-0.15625 -0.224609,0 -0.371094,0.16357 -0.146484,0.16357 -0.144043,0.44434 z"
       style="font-weight:bold;font-size:5px;font-family:'Helvetica Neue', Helvetica, Arial-Unicode, Arial, Sans-serif;fill:#000000"
       id="path128"
       inkscape:connector-curvature="0" />
  </g>
  <g
     aria-label="from the Noun Project"
     style="font-weight:bold;font-size:5px;font-family:'Helvetica Neue', Helvetica, Arial-Unicode, Arial, Sans-serif;fill:#000000"
     id="text8">
    <path
       d="m 0.05859375,117.40723 h 0.38085938 v -0.19532 q 0,-0.32714 0.0683594,-0.48828 0.0708008,-0.16113 0.25634766,-0.26123 0.18798828,-0.10254 0.47363281,-0.10254 0.2929687,0 0.5737304,0.0879 l -0.092773,0.47852 q -0.1635742,-0.0391 -0.3149414,-0.0391 -0.1489258,0 -0.2148438,0.0708 -0.063476,0.0684 -0.063476,0.26611 v 0.18311 h 0.5126953 v 0.53955 H 1.1254883 V 120 H 0.43945313 v -2.05322 H 0.05859375 Z"
       style="font-weight:bold;font-size:5px;font-family:'Helvetica Neue', Helvetica, Arial-Unicode, Arial, Sans-serif;fill:#000000"
       id="path59"
       inkscape:connector-curvature="0" />
    <path
       d="M 2.6855469,120 H 1.9995117 v -2.59277 h 0.6372071 v 0.36865 q 0.1635742,-0.26123 0.2929687,-0.34424 0.1318359,-0.083 0.2978516,-0.083 0.234375,0 0.4516601,0.1294 l -0.2124023,0.59814 q -0.1733399,-0.1123 -0.3222656,-0.1123 -0.144043,0 -0.2441407,0.0806 -0.1000976,0.0781 -0.1586914,0.28565 -0.056152,0.20752 -0.056152,0.86914 z"
       style="font-weight:bold;font-size:5px;font-family:'Helvetica Neue', Helvetica, Arial-Unicode, Arial, Sans-serif;fill:#000000"
       id="path61"
       inkscape:connector-curvature="0" />
    <path
       d="m 3.8134766,118.66699 q 0,-0.34179 0.168457,-0.66162 0.168457,-0.31982 0.4760742,-0.48828 0.3100586,-0.16846 0.690918,-0.16846 0.5883789,0 0.9643554,0.3833 0.3759766,0.38086 0.3759766,0.96436 0,0.58838 -0.3808594,0.97656 -0.3784179,0.38574 -0.9545898,0.38574 -0.3564453,0 -0.6811524,-0.16113 -0.3222656,-0.16113 -0.4907226,-0.47119 -0.168457,-0.3125 -0.168457,-0.75928 z m 0.703125,0.0366 q 0,0.38575 0.1831054,0.59082 0.1831055,0.20508 0.4516602,0.20508 0.2685547,0 0.4492187,-0.20508 0.1831055,-0.20507 0.1831055,-0.5957 0,-0.38086 -0.1831055,-0.58594 -0.180664,-0.20508 -0.4492187,-0.20508 -0.2685547,0 -0.4516602,0.20508 -0.1831054,0.20508 -0.1831054,0.59082 z"
       style="font-weight:bold;font-size:5px;font-family:'Helvetica Neue', Helvetica, Arial-Unicode, Arial, Sans-serif;fill:#000000"
       id="path63"
       inkscape:connector-curvature="0" />
    <path
       d="m 6.9775391,117.40723 h 0.6323242 v 0.354 q 0.3393554,-0.4126 0.8081055,-0.4126 0.2490234,0 0.4321289,0.10254 0.1831054,0.10254 0.3002929,0.31006 0.1708985,-0.20752 0.3686524,-0.31006 0.1977539,-0.10254 0.4223633,-0.10254 0.2856447,0 0.4833987,0.11719 0.197754,0.11475 0.29541,0.33936 0.0708,0.16601 0.0708,0.53711 V 120 H 10.10498 v -1.48193 q 0,-0.38575 -0.0708,-0.49805 -0.095215,-0.14648 -0.2929691,-0.14648 -0.1440429,0 -0.2709961,0.0879 -0.1269531,0.0879 -0.1831054,0.25878 -0.056152,0.16846 -0.056152,0.53467 V 120 H 8.5449219 v -1.4209 q 0,-0.37842 -0.036621,-0.48828 -0.036621,-0.10986 -0.1147461,-0.16357 -0.075684,-0.0537 -0.2075195,-0.0537 -0.1586914,0 -0.2856446,0.0854 -0.1269531,0.0855 -0.1831054,0.24659 -0.053711,0.16113 -0.053711,0.53466 V 120 H 6.9775391 Z"
       style="font-weight:bold;font-size:5px;font-family:'Helvetica Neue', Helvetica, Arial-Unicode, Arial, Sans-serif;fill:#000000"
       id="path65"
       inkscape:connector-curvature="0" />
    <path
       d="m 14.047852,117.40723 v 0.54687 h -0.46875 v 1.04492 q 0,0.31739 0.01221,0.3711 0.01465,0.0513 0.06103,0.0854 0.04883,0.0342 0.117187,0.0342 0.09521,0 0.275879,-0.0659 l 0.05859,0.53222 q -0.239258,0.10254 -0.541992,0.10254 -0.185547,0 -0.334473,-0.061 -0.148926,-0.0635 -0.219726,-0.16113 -0.06836,-0.1001 -0.09522,-0.26856 -0.02197,-0.11963 -0.02197,-0.4834 v -1.13037 h -0.314941 v -0.54687 h 0.314941 v -0.51514 l 0.688477,-0.40039 v 0.91553 z"
       style="font-weight:bold;font-size:5px;font-family:'Helvetica Neue', Helvetica, Arial-Unicode, Arial, Sans-serif;fill:#000000"
       id="path67"
       inkscape:connector-curvature="0" />
    <path
       d="m 15.212402,116.4209 v 1.31592 q 0.332032,-0.38819 0.793457,-0.38819 0.236817,0 0.427246,0.0879 0.19043,0.0879 0.285645,0.22461 0.09766,0.13672 0.131836,0.30274 0.03662,0.16601 0.03662,0.51513 V 120 h -0.686035 v -1.36963 q 0,-0.40771 -0.03906,-0.51758 -0.03906,-0.10986 -0.13916,-0.17334 -0.09766,-0.0659 -0.246582,-0.0659 -0.170898,0 -0.305176,0.083 -0.134277,0.083 -0.197753,0.25147 -0.06104,0.16601 -0.06104,0.49316 V 120 h -0.686035 v -3.5791 z"
       style="font-weight:bold;font-size:5px;font-family:'Helvetica Neue', Helvetica, Arial-Unicode, Arial, Sans-serif;fill:#000000"
       id="path69"
       inkscape:connector-curvature="0" />
    <path
       d="m 19.086914,119.1748 0.683594,0.11475 q -0.131836,0.37598 -0.417481,0.57373 -0.283203,0.19531 -0.710449,0.19531 -0.676269,0 -1.000976,-0.44189 -0.256348,-0.354 -0.256348,-0.89356 0,-0.64453 0.336914,-1.0083 0.336914,-0.36621 0.852051,-0.36621 0.578613,0 0.913086,0.3833 0.334472,0.38086 0.319824,1.16944 h -1.71875 q 0.0073,0.30517 0.166016,0.47607 0.158691,0.16846 0.395507,0.16846 0.161133,0 0.270996,-0.0879 0.109864,-0.0879 0.166016,-0.28321 z m 0.03906,-0.69335 q -0.0073,-0.29786 -0.153809,-0.45166 -0.146484,-0.15625 -0.356445,-0.15625 -0.22461,0 -0.371094,0.16357 -0.146484,0.16357 -0.144043,0.44434 z"
       style="font-weight:bold;font-size:5px;font-family:'Helvetica Neue', Helvetica, Arial-Unicode, Arial, Sans-serif;fill:#000000"
       id="path71"
       inkscape:connector-curvature="0" />
    <path
       d="m 21.767578,120 v -3.5791 h 0.703125 l 1.464844,2.39014 v -2.39014 h 0.671387 V 120 h -0.725098 l -1.442871,-2.33398 V 120 Z"
       style="font-weight:bold;font-size:5px;font-family:'Helvetica Neue', Helvetica, Arial-Unicode, Arial, Sans-serif;fill:#000000"
       id="path73"
       inkscape:connector-curvature="0" />
    <path
       d="m 25.209961,118.66699 q 0,-0.34179 0.168457,-0.66162 0.168457,-0.31982 0.476074,-0.48828 0.310059,-0.16846 0.690918,-0.16846 0.588379,0 0.964356,0.3833 0.375976,0.38086 0.375976,0.96436 0,0.58838 -0.380859,0.97656 -0.378418,0.38574 -0.95459,0.38574 -0.356445,0 -0.681152,-0.16113 -0.322266,-0.16113 -0.490723,-0.47119 -0.168457,-0.3125 -0.168457,-0.75928 z m 0.703125,0.0366 q 0,0.38575 0.183105,0.59082 0.183106,0.20508 0.451661,0.20508 0.268554,0 0.449218,-0.20508 0.183106,-0.20507 0.183106,-0.5957 0,-0.38086 -0.183106,-0.58594 -0.180664,-0.20508 -0.449218,-0.20508 -0.268555,0 -0.451661,0.20508 -0.183105,0.20508 -0.183105,0.59082 z"
       style="font-weight:bold;font-size:5px;font-family:'Helvetica Neue', Helvetica, Arial-Unicode, Arial, Sans-serif;fill:#000000"
       id="path75"
       inkscape:connector-curvature="0" />
    <path
       d="m 30.131836,120 v -0.38818 q -0.141602,0.20752 -0.373535,0.32714 -0.229492,0.11963 -0.48584,0.11963 -0.261231,0 -0.46875,-0.11474 -0.20752,-0.11475 -0.300293,-0.32227 -0.09277,-0.20752 -0.09277,-0.57373 v -1.64062 h 0.686035 v 1.1914 q 0,0.54688 0.03662,0.67139 0.03906,0.12207 0.13916,0.19531 0.100098,0.0708 0.253906,0.0708 0.175781,0 0.314942,-0.0952 0.13916,-0.0977 0.190429,-0.23926 0.05127,-0.14404 0.05127,-0.70068 v -1.09375 h 0.686035 V 120 Z"
       style="font-weight:bold;font-size:5px;font-family:'Helvetica Neue', Helvetica, Arial-Unicode, Arial, Sans-serif;fill:#000000"
       id="path77"
       inkscape:connector-curvature="0" />
    <path
       d="m 33.840332,120 h -0.686035 v -1.32324 q 0,-0.41992 -0.04395,-0.54199 -0.04395,-0.12452 -0.144043,-0.19288 -0.09766,-0.0683 -0.236817,-0.0683 -0.178222,0 -0.319824,0.0977 -0.141602,0.0977 -0.195313,0.25879 -0.05127,0.16113 -0.05127,0.5957 V 120 h -0.686035 v -2.59277 h 0.637207 v 0.38086 q 0.339355,-0.43946 0.854492,-0.43946 0.227051,0 0.415039,0.083 0.187988,0.0806 0.283203,0.20752 0.09766,0.12695 0.134278,0.28809 0.03906,0.16113 0.03906,0.46142 z"
       style="font-weight:bold;font-size:5px;font-family:'Helvetica Neue', Helvetica, Arial-Unicode, Arial, Sans-serif;fill:#000000"
       id="path79"
       inkscape:connector-curvature="0" />
    <path
       d="m 35.930176,120 v -3.5791 h 1.159668 q 0.659179,0 0.859375,0.0537 0.307617,0.0806 0.515136,0.35156 0.20752,0.26856 0.20752,0.6958 0,0.32959 -0.119629,0.5542 -0.119629,0.22461 -0.305176,0.35401 -0.183105,0.12695 -0.373535,0.16845 -0.258789,0.0513 -0.749512,0.0513 H 36.652832 V 120 Z m 0.722656,-2.97363 v 1.01562 h 0.395508 q 0.427246,0 0.571289,-0.0562 0.144043,-0.0562 0.224609,-0.17578 0.08301,-0.11963 0.08301,-0.27832 0,-0.19531 -0.114746,-0.32227 -0.114746,-0.12695 -0.290527,-0.15869 -0.129395,-0.0244 -0.52002,-0.0244 z"
       style="font-weight:bold;font-size:5px;font-family:'Helvetica Neue', Helvetica, Arial-Unicode, Arial, Sans-serif;fill:#000000"
       id="path81"
       inkscape:connector-curvature="0" />
    <path
       d="M 39.921875,120 H 39.23584 v -2.59277 h 0.637207 v 0.36865 q 0.163574,-0.26123 0.292969,-0.34424 0.131836,-0.083 0.297851,-0.083 0.234375,0 0.45166,0.1294 l -0.212402,0.59814 q -0.17334,-0.1123 -0.322266,-0.1123 -0.144043,0 -0.24414,0.0806 -0.100098,0.0781 -0.158692,0.28565 -0.05615,0.20752 -0.05615,0.86914 z"
       style="font-weight:bold;font-size:5px;font-family:'Helvetica Neue', Helvetica, Arial-Unicode, Arial, Sans-serif;fill:#000000"
       id="path83"
       inkscape:connector-curvature="0" />
    <path
       d="m 41.049805,118.66699 q 0,-0.34179 0.168457,-0.66162 0.168457,-0.31982 0.476074,-0.48828 0.310059,-0.16846 0.690918,-0.16846 0.588379,0 0.964355,0.3833 0.375977,0.38086 0.375977,0.96436 0,0.58838 -0.380859,0.97656 -0.378418,0.38574 -0.95459,0.38574 -0.356446,0 -0.681153,-0.16113 -0.322265,-0.16113 -0.490722,-0.47119 -0.168457,-0.3125 -0.168457,-0.75928 z m 0.703125,0.0366 q 0,0.38575 0.183105,0.59082 0.183106,0.20508 0.45166,0.20508 0.268555,0 0.449219,-0.20508 0.183106,-0.20507 0.183106,-0.5957 0,-0.38086 -0.183106,-0.58594 -0.180664,-0.20508 -0.449219,-0.20508 -0.268554,0 -0.45166,0.20508 -0.183105,0.20508 -0.183105,0.59082 z"
       style="font-weight:bold;font-size:5px;font-family:'Helvetica Neue', Helvetica, Arial-Unicode, Arial, Sans-serif;fill:#000000"
       id="path85"
       inkscape:connector-curvature="0" />
    <path
       d="m 44.250488,117.05566 v -0.63476 h 0.686035 v 0.63476 z m 0.686035,0.35157 v 2.5122 q 0,0.49561 -0.06592,0.69825 -0.06348,0.20507 -0.249023,0.31982 -0.183105,0.11475 -0.46875,0.11475 -0.102539,0 -0.222168,-0.0195 -0.117187,-0.0171 -0.253906,-0.0537 l 0.119629,-0.58593 q 0.04883,0.01 0.09277,0.0146 0.0415,0.007 0.07813,0.007 0.104981,0 0.170899,-0.0464 0.06836,-0.0439 0.09033,-0.10742 0.02197,-0.0635 0.02197,-0.38086 v -2.47314 z"
       style="font-weight:bold;font-size:5px;font-family:'Helvetica Neue', Helvetica, Arial-Unicode, Arial, Sans-serif;fill:#000000"
       id="path87"
       inkscape:connector-curvature="0" />
    <path
       d="m 47.15332,119.1748 0.683594,0.11475 q -0.131836,0.37598 -0.41748,0.57373 -0.283204,0.19531 -0.71045,0.19531 -0.676269,0 -1.000976,-0.44189 -0.256348,-0.354 -0.256348,-0.89356 0,-0.64453 0.336914,-1.0083 0.336914,-0.36621 0.852051,-0.36621 0.578613,0 0.913086,0.3833 0.334473,0.38086 0.319824,1.16944 h -1.71875 q 0.0073,0.30517 0.166016,0.47607 0.158691,0.16846 0.395508,0.16846 0.161132,0 0.270996,-0.0879 0.109863,-0.0879 0.166015,-0.28321 z m 0.03906,-0.69335 q -0.0073,-0.29786 -0.153809,-0.45166 -0.146484,-0.15625 -0.356445,-0.15625 -0.224609,0 -0.371094,0.16357 -0.146484,0.16357 -0.144043,0.44434 z"
       style="font-weight:bold;font-size:5px;font-family:'Helvetica Neue', Helvetica, Arial-Unicode, Arial, Sans-serif;fill:#000000"
       id="path89"
       inkscape:connector-curvature="0" />
    <path
       d="m 50.695801,118.17383 -0.67627,0.12207 q -0.03418,-0.20264 -0.15625,-0.30518 -0.119629,-0.10254 -0.3125,-0.10254 -0.256347,0 -0.410156,0.17823 -0.151367,0.17578 -0.151367,0.59082 0,0.46142 0.153808,0.65185 0.15625,0.19043 0.417481,0.19043 0.195312,0 0.319824,-0.10986 0.124512,-0.11231 0.175781,-0.3833 l 0.673828,0.11474 q -0.10498,0.46387 -0.402832,0.70069 -0.297851,0.23681 -0.798339,0.23681 -0.568848,0 -0.908204,-0.35888 -0.336914,-0.35889 -0.336914,-0.99366 0,-0.64209 0.339356,-0.99853 0.339355,-0.35889 0.917969,-0.35889 0.473632,0 0.751953,0.20508 0.280761,0.20264 0.402832,0.62012 z"
       style="font-weight:bold;font-size:5px;font-family:'Helvetica Neue', Helvetica, Arial-Unicode, Arial, Sans-serif;fill:#000000"
       id="path91"
       inkscape:connector-curvature="0" />
    <path
       d="m 52.407227,117.40723 v 0.54687 h -0.46875 v 1.04492 q 0,0.31739 0.01221,0.3711 0.01465,0.0513 0.06103,0.0854 0.04883,0.0342 0.117187,0.0342 0.09521,0 0.275879,-0.0659 l 0.05859,0.53222 q -0.239258,0.10254 -0.541992,0.10254 -0.185547,0 -0.334473,-0.061 -0.148926,-0.0635 -0.219727,-0.16113 -0.06836,-0.1001 -0.09521,-0.26856 Q 51.25,119.44824 51.25,119.08447 v -1.13037 h -0.314941 v -0.54687 H 51.25 v -0.51514 l 0.688477,-0.40039 v 0.91553 z"
       style="font-weight:bold;font-size:5px;font-family:'Helvetica Neue', Helvetica, Arial-Unicode, Arial, Sans-serif;fill:#000000"
       id="path93"
       inkscape:connector-curvature="0" />
  </g>
</svg>
